<?plantuml 1.2026.2?><svg xmlns="http://www.w3.org/2000/svg" xmlns:xlink="http://www.w3.org/1999/xlink" contentStyleType="text/css" data-diagram-type="ACTIVITY" height="1713px" preserveAspectRatio="none" style="width:444px;height:1713px;background:#FFFFFF;" version="1.1" viewBox="0 0 444 1713" width="444px" zoomAndPan="magnify"><title>Experiment Runner - Batch Execution Flow</title><defs/><g><g class="title" data-source-line="1"><text fill="#000000" font-family="Arial" font-size="14" font-weight="bold" lengthAdjust="spacing" textLength="296.9108" x="72.1838" y="34.9659">Experiment Runner - Batch Execution Flow</text></g><ellipse cx="199.8721" cy="60.0679" fill="#222222" rx="10" ry="10" style="stroke:#222222;stroke-width:1;"/><rect fill="#F8F8F8" height="36.3441" rx="12.5" ry="12.5" style="stroke:#555555;stroke-width:0.5;" width="198.4533" x="100.6455" y="90.0679"/><text fill="#000000" font-family="Arial" font-size="12" lengthAdjust="spacing" textLength="178.4533" x="110.6455" y="112.896">Parse CLI or dashboard request</text><rect fill="#F8F8F8" height="69.0323" rx="12.5" ry="12.5" style="stroke:#555555;stroke-width:0.5;" width="192.1772" x="103.7835" y="146.412"/><text fill="#000000" font-family="Arial" font-size="12" lengthAdjust="spacing" textLength="91.0686" x="113.7835" y="169.2401">Build RunConfig</text><text fill="#000000" font-family="Arial" font-size="12" lengthAdjust="spacing" textLength="133.669" x="113.7835" y="185.5842">(system, corpus, model,</text><text fill="#000000" font-family="Arial" font-size="12" lengthAdjust="spacing" textLength="172.1772" x="113.7835" y="201.9283">automation level, corpus path)</text><rect fill="#F8F8F8" height="36.3441" rx="12.5" ry="12.5" style="stroke:#555555;stroke-width:0.5;" width="120.4047" x="139.6698" y="235.4444"/><text fill="#000000" font-family="Arial" font-size="12" lengthAdjust="spacing" textLength="100.4047" x="149.6698" y="258.2725">Load question file</text><rect fill="#F8F8F8" height="36.3441" rx="12.5" ry="12.5" style="stroke:#555555;stroke-width:0.5;" width="120.4047" x="139.6698" y="341.2794"/><text fill="#000000" font-family="Arial" font-size="12" lengthAdjust="spacing" textLength="100.4047" x="149.6698" y="364.1075">Filter question list</text><rect fill="#F8F8F8" height="36.3441" rx="12.5" ry="12.5" style="stroke:#555555;stroke-width:0.5;" width="161.193" x="119.2756" y="447.1145"/><text fill="#000000" font-family="Arial" font-size="12" lengthAdjust="spacing" textLength="141.193" x="129.2756" y="469.9426">Raise configuration error</text><ellipse cx="199.8721" cy="521.7865" fill="none" rx="11" ry="11" style="stroke:#222222;stroke-width:1;"/><ellipse cx="199.8721" cy="521.7865" fill="#222222" rx="6" ry="6" style="stroke:#222222;stroke-width:1;"/><polygon fill="#FFF7E6" points="136.1991,397.6235,263.5452,397.6235,275.5452,409.6235,263.5452,421.6235,136.1991,421.6235,124.1991,409.6235,136.1991,397.6235" style="stroke:#555555;stroke-width:0.5;"/><text fill="#000000" font-family="Arial" font-size="11" lengthAdjust="spacing" textLength="17.0829" x="203.8721" y="433.3825">yes</text><text fill="#000000" font-family="Arial" font-size="11" lengthAdjust="spacing" textLength="127.3461" x="136.1991" y="413.8915">Any selected ID missing?</text><polygon fill="#FFF7E6" points="141.182,291.7885,258.5622,291.7885,270.5622,303.7885,258.5622,315.7885,141.182,315.7885,129.182,303.7885,141.182,291.7885" style="stroke:#555555;stroke-width:0.5;"/><text fill="#000000" font-family="Arial" font-size="11" lengthAdjust="spacing" textLength="17.0829" x="203.8721" y="327.5474">yes</text><text fill="#000000" font-family="Arial" font-size="11" lengthAdjust="spacing" textLength="117.3802" x="141.182" y="308.0565">Question IDs selected?</text><polygon fill="#FFF7E6" points="199.8721,574.7865,211.8721,586.7865,199.8721,598.7865,187.8721,586.7865,199.8721,574.7865" style="stroke:#555555;stroke-width:0.5;"/><rect fill="#F8F8F8" height="52.6882" rx="12.5" ry="12.5" style="stroke:#555555;stroke-width:0.5;" width="177.6211" x="111.0616" y="668.2775"/><text fill="#000000" font-family="Arial" font-size="12" lengthAdjust="spacing" textLength="157.6211" x="121.0616" y="691.1056">Print resolved configuration</text><text fill="#000000" font-family="Arial" font-size="12" lengthAdjust="spacing" textLength="129.5529" x="121.0616" y="707.4497">and selected questions</text><ellipse cx="199.8721" cy="751.9657" fill="none" rx="11" ry="11" style="stroke:#222222;stroke-width:1;"/><ellipse cx="199.8721" cy="751.9657" fill="#222222" rx="6" ry="6" style="stroke:#222222;stroke-width:1;"/><polygon fill="#FFF7E6" points="177.8943,618.7865,221.85,618.7865,233.85,630.7865,221.85,642.7865,177.8943,642.7865,165.8943,630.7865,177.8943,618.7865" style="stroke:#555555;stroke-width:0.5;"/><text fill="#000000" font-family="Arial" font-size="11" lengthAdjust="spacing" textLength="17.0829" x="203.8721" y="654.5455">yes</text><text fill="#000000" font-family="Arial" font-size="11" lengthAdjust="spacing" textLength="43.9557" x="177.8943" y="635.0545">Dry run?</text><rect fill="#F8F8F8" height="36.3441" rx="12.5" ry="12.5" style="stroke:#555555;stroke-width:0.5;" width="207.7533" x="95.9955" y="804.9657"/><text fill="#000000" font-family="Arial" font-size="12" lengthAdjust="spacing" textLength="187.7533" x="105.9955" y="827.7938">Create unique output JSONL path</text><rect fill="#F8F8F8" height="52.6882" rx="12.5" ry="12.5" style="stroke:#555555;stroke-width:0.5;" width="166.077" x="116.8336" y="861.3098"/><text fill="#000000" font-family="Arial" font-size="12" lengthAdjust="spacing" textLength="146.077" x="126.8336" y="884.1379">Instantiate system runner</text><text fill="#000000" font-family="Arial" font-size="12" lengthAdjust="spacing" textLength="134.701" x="126.8336" y="900.482">through runner registry</text><rect fill="#F8F8F8" height="36.3441" rx="12.5" ry="12.5" style="stroke:#555555;stroke-width:0.5;" width="100.9886" x="149.3779" y="933.9981"/><text fill="#000000" font-family="Arial" font-size="12" lengthAdjust="spacing" textLength="80.9886" x="159.3779" y="956.8262">runner.setup()</text><rect fill="#F8F8F8" height="36.3441" rx="12.5" ry="12.5" style="stroke:#555555;stroke-width:0.5;" width="127.1008" x="136.3218" y="1034.3422"/><text fill="#000000" font-family="Arial" font-size="12" lengthAdjust="spacing" textLength="107.1008" x="146.3218" y="1057.1703">Take next question</text><rect fill="#F8F8F8" height="36.3441" rx="12.5" ry="12.5" style="stroke:#555555;stroke-width:0.5;" width="138.5488" x="130.5977" y="1090.6863"/><text fill="#000000" font-family="Arial" font-size="12" lengthAdjust="spacing" textLength="118.5488" x="140.5977" y="1113.5144">runner.run(question)</text><polygon fill="#FFF7E6" points="125.6062,1147.0304,274.1381,1147.0304,286.1381,1159.0304,274.1381,1171.0304,125.6062,1171.0304,113.6062,1159.0304,125.6062,1147.0304" style="stroke:#555555;stroke-width:0.5;"/><text fill="#000000" font-family="Arial" font-size="11" lengthAdjust="spacing" textLength="148.532" x="125.6062" y="1163.2984">System invocation succeeds?</text><text fill="#000000" font-family="Arial" font-size="11" lengthAdjust="spacing" textLength="17.0829" x="96.5233" y="1155.8074">yes</text><text fill="#000000" font-family="Arial" font-size="11" lengthAdjust="spacing" textLength="13.4529" x="286.1381" y="1155.8074">no</text><rect fill="#F8F8F8" height="52.6882" rx="12.5" ry="12.5" style="stroke:#555555;stroke-width:0.5;" width="171.1051" x="11" y="1181.0304"/><text fill="#000000" font-family="Arial" font-size="12" lengthAdjust="spacing" textLength="110.1848" x="21" y="1203.8585">Collect answer text,</text><text fill="#000000" font-family="Arial" font-size="12" lengthAdjust="spacing" textLength="151.1051" x="21" y="1220.2026">metrics, and optional trace</text><rect fill="#F8F8F8" height="52.6882" rx="12.5" ry="12.5" style="stroke:#555555;stroke-width:0.5;" width="202.1733" x="202.1051" y="1181.0304"/><text fill="#000000" font-family="Arial" font-size="12" lengthAdjust="spacing" textLength="182.1733" x="212.1051" y="1203.8585">Store answer_error in RunResult</text><text fill="#000000" font-family="Arial" font-size="12" lengthAdjust="spacing" textLength="164.0292" x="212.1051" y="1220.2026">instead of aborting the batch</text><polygon fill="#FFF7E6" points="199.8721,1239.7186,211.8721,1251.7186,199.8721,1263.7186,187.8721,1251.7186,199.8721,1239.7186" style="stroke:#555555;stroke-width:0.5;"/><rect fill="#F8F8F8" height="52.6882" rx="12.5" ry="12.5" style="stroke:#555555;stroke-width:0.5;" width="155.709" x="122.0177" y="1283.7186"/><text fill="#000000" font-family="Arial" font-size="12" lengthAdjust="spacing" textLength="135.709" x="132.0177" y="1306.5467">Append RunResult JSON</text><text fill="#000000" font-family="Arial" font-size="12" lengthAdjust="spacing" textLength="99.5767" x="132.0177" y="1322.8908">as one JSONL row</text><rect fill="#F8F8F8" height="36.3441" rx="12.5" ry="12.5" style="stroke:#555555;stroke-width:0.5;" width="111.3687" x="144.1878" y="1356.4069"/><text fill="#000000" font-family="Arial" font-size="12" lengthAdjust="spacing" textLength="91.3687" x="154.1878" y="1379.235">Flush output file</text><polygon fill="#FFF7E6" points="199.8721,990.3422,211.8721,1002.3422,199.8721,1014.3422,187.8721,1002.3422,199.8721,990.3422" style="stroke:#555555;stroke-width:0.5;"/><polygon fill="#FFF7E6" points="157.0824,1412.751,242.6618,1412.751,254.6618,1424.751,242.6618,1436.751,157.0824,1436.751,145.0824,1424.751,157.0824,1412.751" style="stroke:#555555;stroke-width:0.5;"/><text fill="#000000" font-family="Arial" font-size="11" lengthAdjust="spacing" textLength="85.5794" x="157.0824" y="1429.0189">More questions?</text><text fill="#000000" font-family="Arial" font-size="11" lengthAdjust="spacing" textLength="17.0829" x="254.6618" y="1421.528">yes</text><rect fill="#F8F8F8" height="36.3441" rx="12.5" ry="12.5" style="stroke:#555555;stroke-width:0.5;" width="123.6207" x="138.0618" y="1456.751"/><text fill="#000000" font-family="Arial" font-size="12" lengthAdjust="spacing" textLength="103.6207" x="148.0618" y="1479.5791">runner.teardown()</text><rect fill="#F8F8F8" height="36.3441" rx="12.5" ry="12.5" style="stroke:#555555;stroke-width:0.5;" width="131.6848" x="134.0297" y="1513.0951"/><text fill="#000000" font-family="Arial" font-size="12" lengthAdjust="spacing" textLength="111.6848" x="144.0297" y="1535.9232">Print result file path</text><ellipse cx="199.8721" cy="1580.4392" fill="none" rx="11" ry="11" style="stroke:#222222;stroke-width:1;"/><ellipse cx="199.8721" cy="1580.4392" fill="#222222" rx="6" ry="6" style="stroke:#222222;stroke-width:1;"/><line style="stroke:#181818;stroke-width:1;" x1="199.8721" x2="199.8721" y1="70.0679" y2="90.0679"/><polygon fill="#181818" points="195.8721,80.0679,199.8721,90.0679,203.8721,80.0679,199.8721,84.0679" style="stroke:#181818;stroke-width:1;"/><line style="stroke:#181818;stroke-width:1;" x1="199.8721" x2="199.8721" y1="126.412" y2="146.412"/><polygon fill="#181818" points="195.8721,136.412,199.8721,146.412,203.8721,136.412,199.8721,140.412" style="stroke:#181818;stroke-width:1;"/><line style="stroke:#181818;stroke-width:1;" x1="199.8721" x2="199.8721" y1="215.4444" y2="235.4444"/><polygon fill="#181818" points="195.8721,225.4444,199.8721,235.4444,203.8721,225.4444,199.8721,229.4444" style="stroke:#181818;stroke-width:1;"/><line style="stroke:#181818;stroke-width:1;" x1="199.8721" x2="199.8721" y1="483.4586" y2="510.7865"/><polygon fill="#181818" points="195.8721,500.7865,199.8721,510.7865,203.8721,500.7865,199.8721,504.7865" style="stroke:#181818;stroke-width:1;"/><line style="stroke:#181818;stroke-width:1;" x1="199.8721" x2="199.8721" y1="421.6235" y2="447.1145"/><polygon fill="#181818" points="195.8721,437.1145,199.8721,447.1145,203.8721,437.1145,199.8721,441.1145" style="stroke:#181818;stroke-width:1;"/><line style="stroke:#181818;stroke-width:1;" x1="275.5452" x2="290.4686" y1="409.6235" y2="409.6235"/><polygon fill="#181818" points="286.4686,480.7865,290.4686,490.7865,294.4686,480.7865,290.4686,484.7865" style="stroke:#181818;stroke-width:1;"/><line style="stroke:#181818;stroke-width:1;" x1="290.4686" x2="290.4686" y1="409.6235" y2="554.7865"/><line style="stroke:#181818;stroke-width:1;" x1="290.4686" x2="199.8721" y1="554.7865" y2="554.7865"/><line style="stroke:#181818;stroke-width:1;" x1="199.8721" x2="199.8721" y1="554.7865" y2="574.7865"/><polygon fill="#181818" points="195.8721,564.7865,199.8721,574.7865,203.8721,564.7865,199.8721,568.7865" style="stroke:#181818;stroke-width:1;"/><line style="stroke:#181818;stroke-width:1;" x1="199.8721" x2="199.8721" y1="377.6235" y2="397.6235"/><polygon fill="#181818" points="195.8721,387.6235,199.8721,397.6235,203.8721,387.6235,199.8721,391.6235" style="stroke:#181818;stroke-width:1;"/><line style="stroke:#181818;stroke-width:1;" x1="199.8721" x2="199.8721" y1="315.7885" y2="341.2794"/><polygon fill="#181818" points="195.8721,331.2794,199.8721,341.2794,203.8721,331.2794,199.8721,335.2794" style="stroke:#181818;stroke-width:1;"/><line style="stroke:#181818;stroke-width:1;" x1="270.5622" x2="312.4686" y1="303.7885" y2="303.7885"/><polygon fill="#181818" points="308.4686,439.1145,312.4686,449.1145,316.4686,439.1145,312.4686,443.1145" style="stroke:#181818;stroke-width:1;"/><line style="stroke:#181818;stroke-width:1;" x1="312.4686" x2="312.4686" y1="303.7885" y2="586.7865"/><line style="stroke:#181818;stroke-width:1;" x1="312.4686" x2="211.8721" y1="586.7865" y2="586.7865"/><polygon fill="#181818" points="221.8721,582.7865,211.8721,586.7865,221.8721,590.7865,217.8721,586.7865" style="stroke:#181818;stroke-width:1;"/><line style="stroke:#181818;stroke-width:1;" x1="199.8721" x2="199.8721" y1="271.7885" y2="291.7885"/><polygon fill="#181818" points="195.8721,281.7885,199.8721,291.7885,203.8721,281.7885,199.8721,285.7885" style="stroke:#181818;stroke-width:1;"/><line style="stroke:#181818;stroke-width:1;" x1="199.8721" x2="199.8721" y1="720.9657" y2="740.9657"/><polygon fill="#181818" points="195.8721,730.9657,199.8721,740.9657,203.8721,730.9657,199.8721,734.9657" style="stroke:#181818;stroke-width:1;"/><line style="stroke:#181818;stroke-width:1;" x1="199.8721" x2="199.8721" y1="642.7865" y2="668.2775"/><polygon fill="#181818" points="195.8721,658.2775,199.8721,668.2775,203.8721,658.2775,199.8721,662.2775" style="stroke:#181818;stroke-width:1;"/><line style="stroke:#181818;stroke-width:1;" x1="233.85" x2="298.6827" y1="630.7865" y2="630.7865"/><polygon fill="#181818" points="294.6827,710.1216,298.6827,720.1216,302.6827,710.1216,298.6827,714.1216" style="stroke:#181818;stroke-width:1;"/><line style="stroke:#181818;stroke-width:1;" x1="298.6827" x2="298.6827" y1="630.7865" y2="784.9657"/><line style="stroke:#181818;stroke-width:1;" x1="298.6827" x2="199.8721" y1="784.9657" y2="784.9657"/><line style="stroke:#181818;stroke-width:1;" x1="199.8721" x2="199.8721" y1="784.9657" y2="804.9657"/><polygon fill="#181818" points="195.8721,794.9657,199.8721,804.9657,203.8721,794.9657,199.8721,798.9657" style="stroke:#181818;stroke-width:1;"/><line style="stroke:#181818;stroke-width:1;" x1="199.8721" x2="199.8721" y1="598.7865" y2="618.7865"/><polygon fill="#181818" points="195.8721,608.7865,199.8721,618.7865,203.8721,608.7865,199.8721,612.7865" style="stroke:#181818;stroke-width:1;"/><line style="stroke:#181818;stroke-width:1;" x1="199.8721" x2="199.8721" y1="841.3098" y2="861.3098"/><polygon fill="#181818" points="195.8721,851.3098,199.8721,861.3098,203.8721,851.3098,199.8721,855.3098" style="stroke:#181818;stroke-width:1;"/><line style="stroke:#181818;stroke-width:1;" x1="199.8721" x2="199.8721" y1="913.9981" y2="933.9981"/><polygon fill="#181818" points="195.8721,923.9981,199.8721,933.9981,203.8721,923.9981,199.8721,927.9981" style="stroke:#181818;stroke-width:1;"/><line style="stroke:#181818;stroke-width:1;" x1="199.8721" x2="199.8721" y1="1070.6863" y2="1090.6863"/><polygon fill="#181818" points="195.8721,1080.6863,199.8721,1090.6863,203.8721,1080.6863,199.8721,1084.6863" style="stroke:#181818;stroke-width:1;"/><line style="stroke:#181818;stroke-width:1;" x1="113.6062" x2="96.5525" y1="1159.0304" y2="1159.0304"/><line style="stroke:#181818;stroke-width:1;" x1="96.5525" x2="96.5525" y1="1159.0304" y2="1181.0304"/><polygon fill="#181818" points="92.5525,1171.0304,96.5525,1181.0304,100.5525,1171.0304,96.5525,1175.0304" style="stroke:#181818;stroke-width:1;"/><line style="stroke:#181818;stroke-width:1;" x1="286.1381" x2="303.1917" y1="1159.0304" y2="1159.0304"/><line style="stroke:#181818;stroke-width:1;" x1="303.1917" x2="303.1917" y1="1159.0304" y2="1181.0304"/><polygon fill="#181818" points="299.1917,1171.0304,303.1917,1181.0304,307.1917,1171.0304,303.1917,1175.0304" style="stroke:#181818;stroke-width:1;"/><line style="stroke:#181818;stroke-width:1;" x1="96.5525" x2="96.5525" y1="1233.7186" y2="1251.7186"/><line style="stroke:#181818;stroke-width:1;" x1="96.5525" x2="187.8721" y1="1251.7186" y2="1251.7186"/><polygon fill="#181818" points="177.8721,1247.7186,187.8721,1251.7186,177.8721,1255.7186,181.8721,1251.7186" style="stroke:#181818;stroke-width:1;"/><line style="stroke:#181818;stroke-width:1;" x1="303.1917" x2="303.1917" y1="1233.7186" y2="1251.7186"/><line style="stroke:#181818;stroke-width:1;" x1="303.1917" x2="211.8721" y1="1251.7186" y2="1251.7186"/><polygon fill="#181818" points="221.8721,1247.7186,211.8721,1251.7186,221.8721,1255.7186,217.8721,1251.7186" style="stroke:#181818;stroke-width:1;"/><line style="stroke:#181818;stroke-width:1;" x1="199.8721" x2="199.8721" y1="1127.0304" y2="1147.0304"/><polygon fill="#181818" points="195.8721,1137.0304,199.8721,1147.0304,203.8721,1137.0304,199.8721,1141.0304" style="stroke:#181818;stroke-width:1;"/><line style="stroke:#181818;stroke-width:1;" x1="199.8721" x2="199.8721" y1="1263.7186" y2="1283.7186"/><polygon fill="#181818" points="195.8721,1273.7186,199.8721,1283.7186,203.8721,1273.7186,199.8721,1277.7186" style="stroke:#181818;stroke-width:1;"/><line style="stroke:#181818;stroke-width:1;" x1="199.8721" x2="199.8721" y1="1336.4069" y2="1356.4069"/><polygon fill="#181818" points="195.8721,1346.4069,199.8721,1356.4069,203.8721,1346.4069,199.8721,1350.4069" style="stroke:#181818;stroke-width:1;"/><line style="stroke:#181818;stroke-width:1;" x1="199.8721" x2="199.8721" y1="1014.3422" y2="1034.3422"/><polygon fill="#181818" points="195.8721,1024.3422,199.8721,1034.3422,203.8721,1024.3422,199.8721,1028.3422" style="stroke:#181818;stroke-width:1;"/><line style="stroke:#181818;stroke-width:1;" x1="254.6618" x2="418.2784" y1="1424.751" y2="1424.751"/><polygon fill="#181818" points="414.2784,1223.5466,418.2784,1213.5466,422.2784,1223.5466,418.2784,1219.5466" style="stroke:#181818;stroke-width:1;"/><line style="stroke:#181818;stroke-width:1;" x1="418.2784" x2="418.2784" y1="1002.3422" y2="1424.751"/><line style="stroke:#181818;stroke-width:1;" x1="418.2784" x2="211.8721" y1="1002.3422" y2="1002.3422"/><polygon fill="#181818" points="221.8721,998.3422,211.8721,1002.3422,221.8721,1006.3422,217.8721,1002.3422" style="stroke:#181818;stroke-width:1;"/><line style="stroke:#181818;stroke-width:1;" x1="199.8721" x2="199.8721" y1="1392.751" y2="1412.751"/><polygon fill="#181818" points="195.8721,1402.751,199.8721,1412.751,203.8721,1402.751,199.8721,1406.751" style="stroke:#181818;stroke-width:1;"/><line style="stroke:#181818;stroke-width:1;" x1="199.8721" x2="199.8721" y1="970.3422" y2="990.3422"/><polygon fill="#181818" points="195.8721,980.3422,199.8721,990.3422,203.8721,980.3422,199.8721,984.3422" style="stroke:#181818;stroke-width:1;"/><line style="stroke:#181818;stroke-width:1;" x1="199.8721" x2="199.8721" y1="1436.751" y2="1456.751"/><polygon fill="#181818" points="195.8721,1446.751,199.8721,1456.751,203.8721,1446.751,199.8721,1450.751" style="stroke:#181818;stroke-width:1;"/><line style="stroke:#181818;stroke-width:1;" x1="199.8721" x2="199.8721" y1="1493.0951" y2="1513.0951"/><polygon fill="#181818" points="195.8721,1503.0951,199.8721,1513.0951,203.8721,1503.0951,199.8721,1507.0951" style="stroke:#181818;stroke-width:1;"/><line style="stroke:#181818;stroke-width:1;" x1="199.8721" x2="199.8721" y1="1549.4392" y2="1569.4392"/><polygon fill="#181818" points="195.8721,1559.4392,199.8721,1569.4392,203.8721,1559.4392,199.8721,1563.4392" style="stroke:#181818;stroke-width:1;"/><g class="legend" data-source-line="55"><rect fill="none" height="86.2717" rx="7.5" ry="7.5" style="stroke:#000000;stroke-width:1;" width="280.465" x="138.8134" y="1602.4392"/><text fill="#000000" font-family="Arial" font-size="14" lengthAdjust="spacing" textLength="94.9336" x="143.8134" y="1622.4051">Main purpose:</text><text fill="#000000" font-family="Arial" font-size="14" lengthAdjust="spacing" textLength="252.517" x="143.8134" y="1641.4731">execute the same question set against</text><text fill="#000000" font-family="Arial" font-size="14" lengthAdjust="spacing" textLength="238.2791" x="143.8134" y="1660.541">different systems while preserving a</text><text fill="#000000" font-family="Arial" font-size="14" lengthAdjust="spacing" textLength="270.465" x="143.8134" y="1679.6089">common result schema for later analysis.</text></g><?plantuml-src RLJ9Rjj03BthAmZquW1fRbrW7ufi1b8aQPlqQA1W94eQP3IZSZXsZAB_NbAI7QU93LZMS7jyZnnnuWakdtfYrr4GkCiX4CDxE4CfMxLGcSN504iVDqMH7bteaR631omV6uuvLEVHHuPDwuGExAd5AcvSQA16dmuj5TMOlInZa5li24xPeJ-mOobkxMGBVmfG62_Bl5j-jgzP8bV4q-c7uQEd5mwx6AhNOSlbfykF1mvlHF_L_WHPYcB-7JaHd5zVWTehJEr3HAw0wNUc98jYVfQThuojynXgrwp2B6sJK7SCPUG-fsFeOaN-U1KmI-nmuD3JMeyc3-XHsYDDTHsnWY6l-TJEqw8eN0sp7xkpgui4YJoLGjMN8v2M0iosb8wqd_dIUL75zWcyCu00bk4qRFU1cWKwbv9AydyEpNA7JXikXsOoZt29EV9Yi2U9lVwXKBcw67y7Y1Uy1SxX5QZlx7IOc5BqQotz8gzI4gfdM3lWoIeDTQRyytCc588SdFf0pD9dWQ_ttswl1-wKkgkWWWLnvZRoRsXqW5T1MfM_QQTtXT8eBxpLeF7a997aVgO254oz5ZBOF_6H8D2Jx54Pg5s4FcQxSuiRERuVwxgmZkN8MyfbILIbDsZMWREs0KFQA2hHKZeY7GcxKcV6Y8cz9K4FmbYIrIVT7vY5EEMubyWqPVWrQAJ5RHJlAEbUhO9JLaXdAjQ03v75bb21wChgIY_sCbfdftslBy_10xqgK88OQEAQusPWOUbpQdSoZ6CwCcUxhxV8xCPmxUNKxbsQUj-JhhXOhuLWl3yFYHMsX9EinJ05XQV6iB5hMXFd1hNBFdCV4ysjYU5geg6pPFV8VWDKMS06ZGRrqrPhOhlRnWb94znU2nElZHnKjp9sUY_iqAIofGwXLcuzsdgXAh9DBftOT8x8Ydy0?></g></svg>