<?plantuml 1.2026.2?><svg xmlns="http://www.w3.org/2000/svg" xmlns:xlink="http://www.w3.org/1999/xlink" contentStyleType="text/css" data-diagram-type="DESCRIPTION" height="701px" preserveAspectRatio="none" style="width:1999px;height:701px;background:#FFFFFF;" version="1.1" viewBox="0 0 1999 701" width="1999px" zoomAndPan="magnify"><title>ACE Evaluation System - High-Level Components</title><defs/><g><g class="title" data-source-line="2"><text fill="#000000" font-family="Arial" font-size="14" font-weight="bold" lengthAdjust="spacing" textLength="337.0627" x="803.4686" y="24.9659">ACE Evaluation System - High-Level Components</text></g><!--cluster Corpus preparation--><g class="cluster" data-qualified-name="Corpus preparation" data-source-line="21" id="ent0003"><rect fill="none" height="295" rx="2.5" ry="2.5" style="stroke:#181818;stroke-width:1;" width="243" x="1710" y="397.0679"/><text fill="#000000" font-family="Arial" font-size="14" font-weight="bold" lengthAdjust="spacing" textLength="136.4295" x="1763.2853" y="414.0339">Corpus preparation</text></g><!--cluster Question answering--><g class="cluster" data-qualified-name="Question answering" data-source-line="26" id="ent0006"><rect fill="none" height="115" rx="2.5" ry="2.5" style="stroke:#181818;stroke-width:1;" width="512" x="14" y="387.5679"/><text fill="#000000" font-family="Arial" font-size="14" font-weight="bold" lengthAdjust="spacing" textLength="140.9795" x="199.5103" y="404.5339">Question answering</text></g><!--cluster Experiment execution--><g class="cluster" data-qualified-name="Experiment execution" data-source-line="31" id="ent0009"><rect fill="none" height="309.5" rx="2.5" ry="2.5" style="stroke:#181818;stroke-width:1;" width="220" x="824" y="188.0679"/><text fill="#000000" font-family="Arial" font-size="14" font-weight="bold" lengthAdjust="spacing" textLength="153.8734" x="857.0633" y="205.0339">Experiment execution</text></g><!--cluster Analysis and reporting--><g class="cluster" data-qualified-name="Analysis and reporting" data-source-line="36" id="ent0012"><rect fill="none" height="319" rx="2.5" ry="2.5" style="stroke:#181818;stroke-width:1;" width="474" x="1150" y="188.0679"/><text fill="#000000" font-family="Arial" font-size="14" font-weight="bold" lengthAdjust="spacing" textLength="158.4514" x="1307.7743" y="205.0339">Analysis and reporting</text></g><!--entity Researcher--><g class="entity" data-qualified-name="Researcher" data-source-line="19" id="ent0002"><ellipse cx="1353.9459" cy="52.5679" fill="#F1F1F1" rx="8" ry="8" style="stroke:#181818;stroke-width:0.5;"/><path d="M1353.9459,60.5679 L1353.9459,87.5679 M1340.9459,68.5679 L1366.9459,68.5679 M1353.9459,87.5679 L1340.9459,102.5679 M1353.9459,87.5679 L1366.9459,102.5679" fill="none" style="stroke:#181818;stroke-width:0.5;"/><text fill="#000000" font-family="Arial" font-size="14" lengthAdjust="spacing" textLength="73.8917" x="1317" y="119.0339">Researcher</text></g><g class="entity" data-qualified-name="GMN33" data-source-line="64" id="ent0034"><path d="M536,389.0679 L536,523.01 A0,0 0 0 0 536,523.01 L816.1552,523.01 A0,0 0 0 0 816.1552,523.01 L816.1552,399.0679 L806.1552,389.0679 L768.4618,389.0679 L867.0435,314.1086 L760.4618,389.0679 L536,389.0679 A0,0 0 0 0 536,389.0679" fill="#FEFFDD" style="stroke:#181818;stroke-width:0.5;"/><path d="M806.1552,389.0679 L806.1552,399.0679 L816.1552,399.0679 L806.1552,389.0679" fill="#FEFFDD" style="stroke:#181818;stroke-width:0.5;"/><text fill="#000000" font-family="Arial" font-size="13" lengthAdjust="spacing" textLength="250.6532" x="542" y="407.9649">All systems are normalized into the same</text><text fill="#000000" font-family="Arial" font-size="13" lengthAdjust="spacing" textLength="239.2132" x="542" y="425.6709">RunResult JSONL format so they can be</text><text fill="#000000" font-family="Arial" font-size="13" lengthAdjust="spacing" textLength="259.1552" x="542" y="443.377">compared with the same analysis pipeline.</text><text fill="#000000" font-family="Arial" font-size="13" lengthAdjust="spacing" textLength="253.9423" x="542" y="461.083">Suite runner supports multi-system batch</text><text fill="#000000" font-family="Arial" font-size="13" lengthAdjust="spacing" textLength="255.1512" x="542" y="478.789">scheduling with resumable state tracking.</text><text fill="#000000" font-family="Arial" font-size="13" lengthAdjust="spacing" textLength="239.6162" x="542" y="496.495">Corpus isolation (tmpfs copy) is applied</text><text fill="#000000" font-family="Arial" font-size="13" lengthAdjust="spacing" textLength="229.3072" x="542" y="514.201">per-question for file-reading systems.</text></g><!--entity scraper--><g class="entity" data-qualified-name="Corpus preparation.scraper" data-source-line="22" id="ent0004"><rect fill="#F8F8F8" height="58.1358" rx="2.5" ry="2.5" style="stroke:#555555;stroke-width:0.5;" width="153.4755" x="1791.5" y="427.0679"/><text fill="#000000" font-family="Arial" font-size="14" lengthAdjust="spacing" textLength="101.0376" x="1801.5" y="452.0339">Corpus Scraper</text><text fill="#000000" font-family="Arial" font-size="14" lengthAdjust="spacing" textLength="133.4755" x="1801.5" y="471.1018">(corpus_scraper CLI)</text></g><!--entity corpora--><g class="entity" data-qualified-name="Corpus preparation.corpora" data-source-line="23" id="ent0005"><path d="M1718,608.0679 C1718,598.0679 1788.8788,598.0679 1788.8788,598.0679 C1788.8788,598.0679 1859.7575,598.0679 1859.7575,608.0679 L1859.7575,674.2717 C1859.7575,684.2717 1788.8788,684.2717 1788.8788,684.2717 C1788.8788,684.2717 1718,684.2717 1718,674.2717 L1718,608.0679" fill="#F4F8FF" style="stroke:#555555;stroke-width:0.5;"/><path d="M1718,608.0679 C1718,618.0679 1788.8788,618.0679 1788.8788,618.0679 C1788.8788,618.0679 1859.7575,618.0679 1859.7575,608.0679" fill="none" style="stroke:#555555;stroke-width:0.5;"/><text fill="#000000" font-family="Arial" font-size="14" lengthAdjust="spacing" textLength="108.4856" x="1728" y="637.0339">Scraped corpora</text><text fill="#000000" font-family="Arial" font-size="14" lengthAdjust="spacing" textLength="121.7575" x="1728" y="656.1018">raw files, text files,</text><text fill="#000000" font-family="Arial" font-size="14" lengthAdjust="spacing" textLength="92.4836" x="1728" y="675.1697">manifest.jsonl</text></g><!--entity ace--><g class="entity" data-qualified-name="Question answering.ace" data-source-line="27" id="ent0007"><rect fill="#F8F8F8" height="77.2038" rx="2.5" ry="2.5" style="stroke:#555555;stroke-width:0.5;" width="155.7855" x="22" y="417.5679"/><text fill="#000000" font-family="Arial" font-size="14" lengthAdjust="spacing" textLength="68.3757" x="32" y="442.5339">ACE Agent</text><text fill="#000000" font-family="Arial" font-size="14" lengthAdjust="spacing" textLength="135.7855" x="32" y="461.6018">LangGraph + Ollama</text><text fill="#000000" font-family="Arial" font-size="14" lengthAdjust="spacing" textLength="112.8536" x="32" y="480.6697">with corpus tools</text></g><!--entity baselines--><g class="entity" data-qualified-name="Question answering.baselines" data-source-line="28" id="ent0008"><rect fill="#F8F8F8" height="77.2038" rx="2.5" ry="2.5" style="stroke:#555555;stroke-width:0.5;" width="322.4688" x="196" y="417.5679"/><text fill="#000000" font-family="Arial" font-size="14" lengthAdjust="spacing" textLength="112.2656" x="206" y="442.5339">Baseline systems</text><text fill="#000000" font-family="Arial" font-size="14" lengthAdjust="spacing" textLength="302.4688" x="206" y="461.6018">Claude Code (cloud/local), Codex (cloud/local),</text><text fill="#000000" font-family="Arial" font-size="14" lengthAdjust="spacing" textLength="159.2214" x="206" y="480.6697">ClawCode, AnythingLLM</text></g><!--entity runner--><g class="entity" data-qualified-name="Experiment execution.runner" data-source-line="32" id="ent0010"><rect fill="#F8F8F8" height="96.2717" rx="2.5" ry="2.5" style="stroke:#555555;stroke-width:0.5;" width="203.3293" x="832.5" y="218.0679"/><text fill="#000000" font-family="Arial" font-size="14" lengthAdjust="spacing" textLength="127.7635" x="842.5" y="243.0339">Experiment Runner</text><text fill="#000000" font-family="Arial" font-size="14" lengthAdjust="spacing" textLength="116.5356" x="842.5" y="262.1018">question batches,</text><text fill="#000000" font-family="Arial" font-size="14" lengthAdjust="spacing" textLength="103.3896" x="842.5" y="281.1697">runner registry,</text><text fill="#000000" font-family="Arial" font-size="14" lengthAdjust="spacing" textLength="183.3293" x="842.5" y="300.2376">common RunResult schema</text></g><!--entity run_results--><g class="entity" data-qualified-name="Experiment execution.run_results" data-source-line="33" id="ent0011"><path d="M882,432.5679 C882,422.5679 958.8007,422.5679 958.8007,422.5679 C958.8007,422.5679 1035.6015,422.5679 1035.6015,432.5679 L1035.6015,479.7038 C1035.6015,489.7038 958.8007,489.7038 958.8007,489.7038 C958.8007,489.7038 882,489.7038 882,479.7038 L882,432.5679" fill="#F4F8FF" style="stroke:#555555;stroke-width:0.5;"/><path d="M882,432.5679 C882,442.5679 958.8007,442.5679 958.8007,442.5679 C958.8007,442.5679 1035.6015,442.5679 1035.6015,432.5679" fill="none" style="stroke:#555555;stroke-width:0.5;"/><text fill="#000000" font-family="Arial" font-size="14" lengthAdjust="spacing" textLength="123.8295" x="892" y="461.5339">Experiment results</text><text fill="#000000" font-family="Arial" font-size="14" lengthAdjust="spacing" textLength="133.6015" x="892" y="480.6018">JSONL per run batch</text></g><!--entity processor--><g class="entity" data-qualified-name="Analysis and reporting.processor" data-source-line="37" id="ent0013"><rect fill="#F8F8F8" height="96.2717" rx="2.5" ry="2.5" style="stroke:#555555;stroke-width:0.5;" width="143.6615" x="1384" y="218.0679"/><text fill="#000000" font-family="Arial" font-size="14" lengthAdjust="spacing" textLength="109.2696" x="1394" y="243.0339">Result Processor</text><text fill="#000000" font-family="Arial" font-size="14" lengthAdjust="spacing" textLength="106.2456" x="1394" y="262.1018">citation parsing,</text><text fill="#000000" font-family="Arial" font-size="14" lengthAdjust="spacing" textLength="123.6615" x="1394" y="281.1697">excerpt resolution,</text><text fill="#000000" font-family="Arial" font-size="14" lengthAdjust="spacing" textLength="114.3796" x="1394" y="300.2376">examiner scoring</text></g><!--entity dashboard--><g class="entity" data-qualified-name="Analysis and reporting.dashboard" data-source-line="38" id="ent0014"><rect fill="#F8F8F8" height="77.2038" rx="2.5" ry="2.5" style="stroke:#555555;stroke-width:0.5;" width="207.8233" x="1158" y="227.5679"/><text fill="#000000" font-family="Arial" font-size="14" lengthAdjust="spacing" textLength="187.8233" x="1168" y="252.5339">Visualization and Dashboard</text><text fill="#000000" font-family="Arial" font-size="14" lengthAdjust="spacing" textLength="83.3277" x="1168" y="271.6018">plots, tables,</text><text fill="#000000" font-family="Arial" font-size="14" lengthAdjust="spacing" textLength="78.2597" x="1168" y="290.6697">Streamlit UI</text></g><!--entity analysis_results--><g class="entity" data-qualified-name="Analysis and reporting.analysis_results" data-source-line="39" id="ent0015"><path d="M1356.5,423.0679 C1356.5,413.0679 1417.1378,413.0679 1417.1378,413.0679 C1417.1378,413.0679 1477.7756,413.0679 1477.7756,423.0679 L1477.7756,489.2717 C1477.7756,499.2717 1417.1378,499.2717 1417.1378,499.2717 C1417.1378,499.2717 1356.5,499.2717 1356.5,489.2717 L1356.5,423.0679" fill="#F4F8FF" style="stroke:#555555;stroke-width:0.5;"/><path d="M1356.5,423.0679 C1356.5,433.0679 1417.1378,433.0679 1417.1378,433.0679 C1417.1378,433.0679 1477.7756,433.0679 1477.7756,423.0679" fill="none" style="stroke:#555555;stroke-width:0.5;"/><text fill="#000000" font-family="Arial" font-size="14" lengthAdjust="spacing" textLength="101.2756" x="1366.5" y="452.0339">Analysis results</text><text fill="#000000" font-family="Arial" font-size="14" lengthAdjust="spacing" textLength="93.7716" x="1366.5" y="471.1018">claim verdicts,</text><text fill="#000000" font-family="Arial" font-size="14" lengthAdjust="spacing" textLength="93.0296" x="1366.5" y="490.1697">metrics, notes</text></g><!--entity figures--><g class="entity" data-qualified-name="Analysis and reporting.figures" data-source-line="40" id="ent0016"><path d="M1158.5,423.0679 C1158.5,413.0679 1228.8258,413.0679 1228.8258,413.0679 C1228.8258,413.0679 1299.1516,413.0679 1299.1516,423.0679 L1299.1516,489.2717 C1299.1516,499.2717 1228.8258,499.2717 1228.8258,499.2717 C1228.8258,499.2717 1158.5,499.2717 1158.5,489.2717 L1158.5,423.0679" fill="#F4F8FF" style="stroke:#555555;stroke-width:0.5;"/><path d="M1158.5,423.0679 C1158.5,433.0679 1228.8258,433.0679 1228.8258,433.0679 C1228.8258,433.0679 1299.1516,433.0679 1299.1516,423.0679" fill="none" style="stroke:#555555;stroke-width:0.5;"/><text fill="#000000" font-family="Arial" font-size="14" lengthAdjust="spacing" textLength="120.6516" x="1168.5" y="452.0339">Figures and tables</text><text fill="#000000" font-family="Arial" font-size="14" lengthAdjust="spacing" textLength="109.5216" x="1168.5" y="471.1018">SVG/HTML plots,</text><text fill="#000000" font-family="Arial" font-size="14" lengthAdjust="spacing" textLength="82.4457" x="1168.5" y="490.1697">LaTeX tables</text></g><g class="link" data-entity-1="ent0002" data-entity-2="ent0004" data-link-type="dependency" id="lnk17"><polygon fill="#444444" points="1850.4663,426.6446,1848.9492,416.9133,1847.756,422.4429,1842.2264,421.2498,1850.4663,426.6446" style="stroke:#444444;stroke-width:1;"/><path d="M1391.3047,91.4311 C1432.7647,99.8642 1501.1071,116.1893 1556,141.0679 C1696.6915,204.8323 1805.5398,356.9963 1847.214,421.6026" fill="none" style="stroke:#444444;stroke-width:1;"/><text fill="#000000" font-family="Arial" font-size="13" lengthAdjust="spacing" textLength="89.8951" x="1765" y="271.4649">define corpora</text></g><g class="link" data-entity-1="ent0004" data-entity-2="ent0005" data-link-type="dependency" id="lnk18"><polygon fill="#444444" points="1778.316,597.7388,1781.0287,588.2709,1777.6223,592.7872,1773.106,589.3808,1778.316,597.7388" style="stroke:#444444;stroke-width:1;"/><path d="M1827.4164,485.4082 C1810.2824,499.8651 1792.1957,519.0521 1783,541.0679 C1775.6335,558.7044 1774.9507,573.7172 1777.4836,591.7968" fill="none" style="stroke:#444444;stroke-width:1;"/><text fill="#000000" font-family="Arial" font-size="13" lengthAdjust="spacing" textLength="205.1142" x="1785" y="565.9649">stores reusable corpus snapshots</text></g><g class="link" data-entity-1="ent0002" data-entity-2="ent0010" data-link-type="dependency" id="lnk19"><polygon fill="#444444" points="991.4197,217.8863,1001.006,215.6274,995.4012,214.8618,996.1668,209.257,991.4197,217.8863" style="stroke:#444444;stroke-width:1;"/><path d="M1316.7813,89.1213 C1268.767,95.9434 1183.41,111.3212 1116,141.0679 C1071.2262,160.8257 1030.504,188.1963 996.1975,214.2569" fill="none" style="stroke:#444444;stroke-width:1;"/><text fill="#000000" font-family="Arial" font-size="13" lengthAdjust="spacing" textLength="142.2851" x="1118" y="156.9649">choose system, corpus,</text><text fill="#000000" font-family="Arial" font-size="13" lengthAdjust="spacing" textLength="105.3261" x="1136.4795" y="174.6709">model, questions</text></g><g class="link" data-entity-1="ent0010" data-entity-2="ent0007" data-link-type="dependency" id="lnk20"><polygon fill="#444444" points="142.0885,417.3147,151.6286,414.8679,146.0098,414.2125,146.6652,408.5938,142.0885,417.3147" style="stroke:#444444;stroke-width:1;"/><path d="M832.38,273.7019 C719.9134,282.2474 533.6914,299.972 376,332.0679 C290.2121,349.5288 264.9452,347.7058 187,387.5679 C171.3411,395.576 160.4066,402.8234 146.7941,413.5921" fill="none" style="stroke:#444444;stroke-width:1;"/><text fill="#000000" font-family="Arial" font-size="13" lengthAdjust="spacing" textLength="145.6781" x="378" y="356.9649">runs ACE when selected</text></g><g class="link" data-entity-1="ent0010" data-entity-2="ent0008" data-link-type="dependency" id="lnk21"><polygon fill="#444444" points="428.3288,417.536,438.1667,417.0709,432.7969,415.2918,434.576,409.922,428.3288,417.536" style="stroke:#444444;stroke-width:1;"/><path d="M832.2817,282.966 C772.0337,293.7858 694.6835,310.1406 628,332.0679 C558.0575,355.0669 487.3734,387.8799 433.6905,414.843" fill="none" style="stroke:#444444;stroke-width:1;"/><text fill="#000000" font-family="Arial" font-size="13" lengthAdjust="spacing" textLength="156.8061" x="630" y="356.9649">runs comparable systems</text></g><g class="link" data-entity-1="ent0007" data-entity-2="ent0005" data-link-type="dependency" id="lnk22"><polygon fill="#444444" points="1717.9335,637.563,1709.0875,633.233,1712.9369,637.3782,1708.7918,641.2276,1717.9335,637.563" style="stroke:#444444;stroke-width:1;"/><path d="M140.1052,494.6149 C153.9833,505.5707 170.2758,516.3831 187,523.0679 C398.376,607.5573 469.1508,561.155 696,580.0679 C1080.9262,612.16 1537.6074,630.8925 1711.9376,637.3412" fill="none" style="stroke:#444444;stroke-width:1;"/><text fill="#000000" font-family="Arial" font-size="13" lengthAdjust="spacing" textLength="149.1231" x="698" y="565.9649">reads files through tools</text></g><g class="link" data-entity-1="ent0008" data-entity-2="ent0005" data-link-type="dependency" id="lnk23"><polygon fill="#444444" points="1717.7794,631.3002,1709.3269,626.245,1712.8158,630.6977,1708.363,634.1867,1717.7794,631.3002" style="stroke:#444444;stroke-width:1;"/><path d="M438.3963,494.6648 C465.9581,505.765 497.2915,516.6506 527,523.0679 C668.8382,553.7063 708.3576,529.4328 853,541.0679 C1176.521,567.0922 1555.5203,611.607 1711.8231,630.5773" fill="none" style="stroke:#444444;stroke-width:1;"/><text fill="#000000" font-family="Arial" font-size="13" lengthAdjust="spacing" textLength="144.0141" x="1267" y="556.9649">receives corpus context</text><text fill="#000000" font-family="Arial" font-size="13" lengthAdjust="spacing" textLength="114.2051" x="1281.9045" y="574.6709">or workspace copy</text></g><g class="link" data-entity-1="ent0010" data-entity-2="ent0011" data-link-type="dependency" id="lnk24"><polygon fill="#444444" points="898.0508,422.4695,893.0503,413.9845,893.9815,419.5642,888.4018,420.4954,898.0508,422.4695" style="stroke:#444444;stroke-width:1;"/><path d="M862.9291,314.1688 C858.2249,319.6799 854.1254,325.6505 851,332.0679 C843.4105,347.6514 843.3846,355.4971 851,371.0679 C861.2275,391.9794 874.5683,405.704 893.1676,418.9831" fill="none" style="stroke:#444444;stroke-width:1;"/><text fill="#000000" font-family="Arial" font-size="13" lengthAdjust="spacing" textLength="94.7571" x="853" y="347.9649">writes answers,</text><text fill="#000000" font-family="Arial" font-size="13" lengthAdjust="spacing" textLength="89.3881" x="855.6845" y="365.6709">metrics, traces</text></g><g class="link" data-entity-1="ent0002" data-entity-2="ent0013" data-link-type="dependency" id="lnk25"><polygon fill="#444444" points="1447.4571,218.0353,1449.2186,208.3452,1446.2763,213.1767,1441.4449,210.2344,1447.4571,218.0353" style="stroke:#444444;stroke-width:1;"/><path d="M1391.068,111.878 C1400.5854,120.355 1410.0786,130.3223 1417,141.0679 C1431.97,164.3091 1440.1265,187.8706 1446.0402,212.205" fill="none" style="stroke:#444444;stroke-width:1;"/><text fill="#000000" font-family="Arial" font-size="13" lengthAdjust="spacing" textLength="112.5541" x="1438" y="165.9649">analyze result files</text></g><g class="link" data-entity-1="ent0013" data-entity-2="ent0011" data-link-type="dependency" id="lnk26"><polygon fill="#444444" points="990.168,422.3708,999.2722,418.614,993.617,418.7508,993.4802,413.0956,990.168,422.3708" style="stroke:#444444;stroke-width:1;"/><path d="M1383.8766,311.036 C1380.9222,312.1573 1377.9575,313.1759 1375,314.0679 C1311.2711,333.2902 1136.3398,303.9614 1076,332.0679 C1054.3416,342.1565 1055.4611,353.7504 1039,371.0679 C1022.9052,388.0001 1009.1093,402.4906 994.3068,418.0268" fill="none" style="stroke:#444444;stroke-width:1;"/><text fill="#000000" font-family="Arial" font-size="13" lengthAdjust="spacing" textLength="88.2961" x="1078" y="356.9649">reads answers</text></g><g class="link" data-entity-1="ent0013" data-entity-2="ent0005" data-link-type="dependency" id="lnk27"><polygon fill="#444444" points="1717.9219,599.747,1712.8047,591.3319,1713.8129,596.8982,1708.2466,597.9064,1717.9219,599.747" style="stroke:#444444;stroke-width:1;"/><path d="M1528.2917,282.3709 C1556.8765,292.0035 1587.4983,307.4644 1607,332.0679 C1660.5595,399.639 1596.7429,449.0694 1641,523.0679 C1659.5772,554.1292 1684.7606,576.756 1712.991,596.3284" fill="none" style="stroke:#444444;stroke-width:1;"/><text fill="#000000" font-family="Arial" font-size="13" lengthAdjust="spacing" textLength="138.7491" x="1643" y="461.4649">resolves cited excerpts</text></g><g class="link" data-entity-1="ent0013" data-entity-2="ent0015" data-link-type="dependency" id="lnk28"><polygon fill="#444444" points="1425.7736,412.7745,1431.5183,404.7747,1426.7892,407.8788,1423.6851,403.1497,1425.7736,412.7745" style="stroke:#444444;stroke-width:1;"/><path d="M1446.1587,314.5083 C1439.8855,344.7481 1433.0469,377.7135 1426.9924,406.8996" fill="none" style="stroke:#444444;stroke-width:1;"/><text fill="#000000" font-family="Arial" font-size="13" lengthAdjust="spacing" textLength="156.3251" x="1445" y="356.9649">writes claim-level verdicts</text></g><g class="link" data-entity-1="ent0014" data-entity-2="ent0011" data-link-type="dependency" id="lnk29"><polygon fill="#444444" points="952.9119,422.4562,955.8668,413.0611,952.3456,417.4884,947.9183,413.9672,952.9119,422.4562" style="stroke:#444444;stroke-width:1;"/><path d="M1157.707,290.0814 C1074.8987,308.4095 972.8152,331.153 972,332.0679 C950.3589,356.3574 949.0996,389.0141 952.2323,416.4948" fill="none" style="stroke:#444444;stroke-width:1;"/><text fill="#000000" font-family="Arial" font-size="13" lengthAdjust="spacing" textLength="63.7781" x="974" y="356.9649">loads runs</text></g><g class="link" data-entity-1="ent0014" data-entity-2="ent0015" data-link-type="dependency" id="lnk30"><polygon fill="#444444" points="1374.4718,412.788,1371.3063,403.4617,1371.0803,409.114,1365.428,408.8881,1374.4718,412.788" style="stroke:#444444;stroke-width:1;"/><path d="M1297.5612,304.7333 C1305.0289,313.414 1312.5797,322.8215 1319,332.0679 C1330.2281,348.2384 1328.5945,355.0221 1340,371.0679 C1350.2009,385.419 1358.5458,395.5355 1370.4021,408.3792" fill="none" style="stroke:#444444;stroke-width:1;"/><text fill="#000000" font-family="Arial" font-size="13" lengthAdjust="spacing" textLength="88.5041" x="1342" y="356.9649">loads analyses</text></g><g class="link" data-entity-1="ent0014" data-entity-2="ent0016" data-link-type="dependency" id="lnk31"><polygon fill="#444444" points="1192.7585,412.9552,1191.0669,403.2527,1189.9732,408.8028,1184.4231,407.7091,1192.7585,412.9552" style="stroke:#444444;stroke-width:1;"/><path d="M1198.3333,304.6872 C1189.7195,312.6052 1182.1028,321.7421 1177,332.0679 C1163.9555,358.4645 1173.309,383.9593 1189.4162,407.9723" fill="none" style="stroke:#444444;stroke-width:1;"/><text fill="#000000" font-family="Arial" font-size="13" lengthAdjust="spacing" textLength="138.6191" x="1179" y="356.9649">exports thesis artifacts</text></g><g class="link" data-entity-1="ent0002" data-entity-2="ent0014" data-link-type="dependency" id="lnk32"><polygon fill="#444444" points="1260.2407,227.3749,1264.395,218.4451,1260.3268,222.3756,1256.3962,218.3074,1260.2407,227.3749" style="stroke:#444444;stroke-width:1;"/><path d="M1316.8836,104.555 C1303.1302,113.8414 1288.7646,126.158 1280,141.0679 C1264.6768,167.135 1260.7903,195.4528 1260.344,221.3758" fill="none" style="stroke:#444444;stroke-width:1;"/><text fill="#000000" font-family="Arial" font-size="13" lengthAdjust="spacing" textLength="88.4911" x="1304.256" y="156.9649">inspect results</text><text fill="#000000" font-family="Arial" font-size="13" lengthAdjust="spacing" textLength="133.0031" x="1282" y="174.6709">and generate outputs</text></g><?plantuml-src bLPHRnit37w_Ny6bBmaMfoyTCEHXWEibRGUttUgks8E1WjRHFYqwwIRfOhl3_lj8IMUVdUnX3X0OqaVo8_cHydUTnqsBO73l-WYXfOWMgwYZ8PZExk3k4KsFKJiBYts8rC84tkfDCvdJ8ncOkRPpbcmCLHKUjEtGOmihL0yRxtfRpvnn7hQDZZIw3mtMRglj1jPemlX63VuMSSyCF2dcip5ZICVESKF_3QXfZRs9zyx63zXo6bwZ6TrFlNVRJEp5g_HvZW3yNG6yThucNx0_f8-SdgNtulv7-Ql-6PF0Y2iCzB_Sl68tz-ocGXNvu1C5GgyQybLLieQBcVDT7w3p986aCHSfnf7u05aeZntvfRrKwU1ho0Smcx-xkW0CK0xO-a3t8blL83REuz9wtC9Q6mhN46aNo_UbRT7gDOLuysTmrYH_nKOoEF3zhMUCo0Tjs9BdfZ_XApgRRlZhqiwvcM-OG0FVmqTZi6K2MnqRo2b0TCw450iLdNfvpVIDjWGXwJGixSnWNnDhbFzTAkFw-gLn2itLTJhRdHqcWwtSNCFKxcF3NEVpzodQgZWF9xdTxRXwkfNmj2FLFzkD4UXJRwqqvA-X9YkCt5wffazNhEUD3j7l-OHTj0nX6zO1wvcxrL2BYKv6d_Hj5COdF1VWbyN73tEGbhD13ZQOVosWatoc5iq-Q2wkhTaBzp8-rw_2vrVl58NWE26bOzuHhCd09aoVTefybyWuaogJ3h7LacVWVYRNA58kVawZVD6XHwE_OL5F3JzZQ5OEVRsqdN5H18chBCP5z8IjqH5-VvUSrWFsf4Y710ybKWPr2u_aQwrYaZL5hnNxjYvIaLgnEjHixF9URte-JmGp7MRpvStBjv_VS-aJJP7rP_gZN2UNwsmbrJzEEKmcFmqp2RUonqJEmr0D5m8gPmmAl2X8ykc3U1_c95ZiGkDaBP_vBqAx1TKu5uPfkIw6KW0U07CDWqP3LIp4c8UEBVaWfCTXsv057WnUmbIFSOTn6T3ILrvNmh2CPoM-JdFX5jOXxnU83M_6JPC7lZhwExTGf1yf36ahtlcyevPM7Xtd7q8dKPJhzcDs8_cpZwtdnocKzNIYWEZP-ca53tfbuoIDRrJqbBbNHy3JQ3d74kmCESwBXoRbnTngABDqZZ_NvJ6PfEg9IK_qeEsgEip4CxoC4rxIgpFOCq4oDb_GERuecs6qamKYhQIqKtYPh568dDNpQ7yBseQErNISJnahVXg8dpe2_edIzPA9p2QiN8ok1RS-hiEfCOE-E1xn3FjMTWZNKDleX0e4_at0qEDUpLjoBL1UiWcq1uMyC8SNXbtLa9wXmS6XBD3fBadpXh6Bdgi_J5Zekvn_oq7q9DFAIvYXiiphtiXleEHO4cxpV4H9LRJ7FoOsuhQyvveraPVXPMoxTKYwlW8fRTSPJRBgU45C3gyBfvGKEH7HIQHIcfkAkAfIm-fV?></g></svg>