<?plantuml 1.2026.2?><svg xmlns="http://www.w3.org/2000/svg" xmlns:xlink="http://www.w3.org/1999/xlink" contentStyleType="text/css" data-diagram-type="ACTIVITY" height="2899px" preserveAspectRatio="none" style="width:909px;height:2899px;background:#FFFFFF;" version="1.1" viewBox="0 0 909 2899" width="909px" zoomAndPan="magnify"><title>Experiment Runner - Batch Execution Flow</title><defs/><g><g class="title" data-source-line="1"><text fill="#000000" font-family="Arial" font-size="14" font-weight="bold" lengthAdjust="spacing" textLength="296.9108" x="304.8232" y="34.9659">Experiment Runner - Batch Execution Flow</text></g><ellipse cx="435.5997" cy="60.0679" fill="#222222" rx="10" ry="10" style="stroke:#222222;stroke-width:1;"/><rect fill="#F8F8F8" height="36.3441" rx="12.5" ry="12.5" style="stroke:#555555;stroke-width:0.5;" width="198.4533" x="336.373" y="90.0679"/><text fill="#000000" font-family="Arial" font-size="12" lengthAdjust="spacing" textLength="178.4533" x="346.373" y="112.896">Parse CLI or dashboard request</text><path d="M10,136.412 L10,217.2361 L340.5173,217.2361 L340.5173,146.412 L330.5173,136.412 L10,136.412" fill="#FEFFDD" style="stroke:#181818;stroke-width:0.5;"/><path d="M330.5173,136.412 L330.5173,146.412 L340.5173,146.412 L330.5173,136.412" fill="#FEFFDD" style="stroke:#181818;stroke-width:0.5;"/><text fill="#000000" font-family="Arial" font-size="13" lengthAdjust="spacing" textLength="105.2871" x="16" y="155.309">Alternative entry:</text><text fill="#000000" font-family="Arial" font-size="13" font-weight="bold" lengthAdjust="spacing" textLength="149.7991" x="124.6671" y="155.309">suite run --config &lt;file&gt;</text><text fill="#000000" font-family="Arial" font-size="13" lengthAdjust="spacing" textLength="309.5173" x="16" y="173.0151">expands a YAML config into multiple single-system</text><text fill="#000000" font-family="Arial" font-size="13" lengthAdjust="spacing" textLength="282.8932" x="16" y="190.7211">tasks and executes them with resumable state</text><text fill="#000000" font-family="Arial" font-size="13" lengthAdjust="spacing" textLength="256.1653" x="16" y="208.4271">tracking (suite plan / run / status / cancel).</text><rect fill="#F8F8F8" height="36.3441" rx="12.5" ry="12.5" style="stroke:#555555;stroke-width:0.5;" width="201.7293" x="334.735" y="266.727"/><text fill="#000000" font-family="Arial" font-size="12" lengthAdjust="spacing" textLength="181.7293" x="344.735" y="289.5551">Load base suite config and state</text><rect fill="#F8F8F8" height="52.6882" rx="12.5" ry="12.5" style="stroke:#555555;stroke-width:0.5;" width="235.4495" x="317.8749" y="323.0712"/><text fill="#000000" font-family="Arial" font-size="12" lengthAdjust="spacing" textLength="164.7372" x="327.8749" y="345.8992">Create copied editable config</text><text fill="#000000" font-family="Arial" font-size="12" lengthAdjust="spacing" textLength="215.4495" x="327.8749" y="362.2434">with new suite_id and -augment name</text><rect fill="#F8F8F8" height="36.3441" rx="12.5" ry="12.5" style="stroke:#555555;stroke-width:0.5;" width="237.8736" x="316.6629" y="395.7594"/><text fill="#000000" font-family="Arial" font-size="12" lengthAdjust="spacing" textLength="217.8736" x="326.6629" y="418.5875">Build planned tasks from edited config</text><rect fill="#F8F8F8" height="52.6882" rx="12.5" ry="12.5" style="stroke:#555555;stroke-width:0.5;" width="287.9139" x="291.6427" y="452.1035"/><text fill="#000000" font-family="Arial" font-size="12" lengthAdjust="spacing" textLength="218.2935" x="301.6427" y="474.9316">Carry over matching SUCCEEDED tasks</text><text fill="#000000" font-family="Arial" font-size="12" lengthAdjust="spacing" textLength="267.9139" x="301.6427" y="491.2757">only when result JSONL exists and is non-empty</text><rect fill="#F8F8F8" height="52.6882" rx="12.5" ry="12.5" style="stroke:#555555;stroke-width:0.5;" width="197.0612" x="337.0691" y="524.7917"/><text fill="#000000" font-family="Arial" font-size="12" lengthAdjust="spacing" textLength="177.0612" x="347.0691" y="547.6198">Mark failed, cancelled, running,</text><text fill="#000000" font-family="Arial" font-size="12" lengthAdjust="spacing" textLength="152.8091" x="347.0691" y="563.9639">and new tasks as PENDING</text><rect fill="#F8F8F8" height="52.6882" rx="12.5" ry="12.5" style="stroke:#555555;stroke-width:0.5;" width="189.4412" x="340.8791" y="597.48"/><text fill="#000000" font-family="Arial" font-size="12" lengthAdjust="spacing" textLength="167.9532" x="350.8791" y="620.308">Persist augmented suite state</text><text fill="#000000" font-family="Arial" font-size="12" lengthAdjust="spacing" textLength="169.4412" x="350.8791" y="636.6522">with provenance to base state</text><rect fill="#F8F8F8" height="52.6882" rx="12.5" ry="12.5" style="stroke:#555555;stroke-width:0.5;" width="178.9651" x="346.1171" y="670.1682"/><text fill="#000000" font-family="Arial" font-size="12" lengthAdjust="spacing" textLength="106.3568" x="356.1171" y="692.9963">Run / resume suite</text><text fill="#000000" font-family="Arial" font-size="12" lengthAdjust="spacing" textLength="158.9651" x="356.1171" y="709.3404">executes only pending tasks</text><polygon fill="#FFF7E6" points="352.5173,217.2361,518.6821,217.2361,530.6821,229.2361,518.6821,241.2361,352.5173,241.2361,340.5173,229.2361,352.5173,217.2361" style="stroke:#555555;stroke-width:0.5;"/><text fill="#000000" font-family="Arial" font-size="11" lengthAdjust="spacing" textLength="17.0829" x="439.5997" y="252.995">yes</text><text fill="#000000" font-family="Arial" font-size="11" lengthAdjust="spacing" textLength="166.1648" x="352.5173" y="233.5041">Dashboard suite augmentation?</text><text fill="#000000" font-family="Arial" font-size="11" lengthAdjust="spacing" textLength="13.4529" x="530.6821" y="226.0131">no</text><polygon fill="#FFF7E6" points="435.5997,742.8564,447.5997,754.8564,435.5997,766.8564,423.5997,754.8564,435.5997,742.8564" style="stroke:#555555;stroke-width:0.5;"/><rect fill="#F8F8F8" height="85.3765" rx="12.5" ry="12.5" style="stroke:#555555;stroke-width:0.5;" width="254.6736" x="308.2629" y="786.8564"/><text fill="#000000" font-family="Arial" font-size="12" lengthAdjust="spacing" textLength="91.0686" x="318.2629" y="809.6845">Build RunConfig</text><text fill="#000000" font-family="Arial" font-size="12" lengthAdjust="spacing" textLength="133.669" x="318.2629" y="826.0286">(system, corpus, model,</text><text fill="#000000" font-family="Arial" font-size="12" lengthAdjust="spacing" textLength="171.7932" x="318.2629" y="842.3727">automation level, corpus path,</text><text fill="#000000" font-family="Arial" font-size="12" lengthAdjust="spacing" textLength="234.6736" x="318.2629" y="858.7168">reasoning_enabled, num_ctx, store_trace)</text><rect fill="#F8F8F8" height="36.3441" rx="12.5" ry="12.5" style="stroke:#555555;stroke-width:0.5;" width="120.4047" x="375.3973" y="892.2329"/><text fill="#000000" font-family="Arial" font-size="12" lengthAdjust="spacing" textLength="100.4047" x="385.3973" y="915.061">Load question file</text><rect fill="#F8F8F8" height="36.3441" rx="12.5" ry="12.5" style="stroke:#555555;stroke-width:0.5;" width="120.4047" x="375.3973" y="998.0679"/><text fill="#000000" font-family="Arial" font-size="12" lengthAdjust="spacing" textLength="100.4047" x="385.3973" y="1020.896">Filter question list</text><rect fill="#F8F8F8" height="36.3441" rx="12.5" ry="12.5" style="stroke:#555555;stroke-width:0.5;" width="161.193" x="355.0032" y="1103.903"/><text fill="#000000" font-family="Arial" font-size="12" lengthAdjust="spacing" textLength="141.193" x="365.0032" y="1126.7311">Raise configuration error</text><ellipse cx="435.5997" cy="1178.575" fill="none" rx="11" ry="11" style="stroke:#222222;stroke-width:1;"/><ellipse cx="435.5997" cy="1178.575" fill="#222222" rx="6" ry="6" style="stroke:#222222;stroke-width:1;"/><polygon fill="#FFF7E6" points="371.9266,1054.412,499.2727,1054.412,511.2727,1066.412,499.2727,1078.412,371.9266,1078.412,359.9266,1066.412,371.9266,1054.412" style="stroke:#555555;stroke-width:0.5;"/><text fill="#000000" font-family="Arial" font-size="11" lengthAdjust="spacing" textLength="17.0829" x="439.5997" y="1090.171">yes</text><text fill="#000000" font-family="Arial" font-size="11" lengthAdjust="spacing" textLength="127.3461" x="371.9266" y="1070.68">Any selected ID missing?</text><polygon fill="#FFF7E6" points="376.9096,948.577,494.2898,948.577,506.2898,960.577,494.2898,972.577,376.9096,972.577,364.9096,960.577,376.9096,948.577" style="stroke:#555555;stroke-width:0.5;"/><text fill="#000000" font-family="Arial" font-size="11" lengthAdjust="spacing" textLength="17.0829" x="439.5997" y="984.3359">yes</text><text fill="#000000" font-family="Arial" font-size="11" lengthAdjust="spacing" textLength="117.3802" x="376.9096" y="964.845">Question IDs selected?</text><polygon fill="#FFF7E6" points="435.5997,1231.575,447.5997,1243.575,435.5997,1255.575,423.5997,1243.575,435.5997,1231.575" style="stroke:#555555;stroke-width:0.5;"/><rect fill="#F8F8F8" height="52.6882" rx="12.5" ry="12.5" style="stroke:#555555;stroke-width:0.5;" width="177.6211" x="346.7891" y="1325.066"/><text fill="#000000" font-family="Arial" font-size="12" lengthAdjust="spacing" textLength="157.6211" x="356.7891" y="1347.8941">Print resolved configuration</text><text fill="#000000" font-family="Arial" font-size="12" lengthAdjust="spacing" textLength="129.5529" x="356.7891" y="1364.2382">and selected questions</text><ellipse cx="435.5997" cy="1408.7542" fill="none" rx="11" ry="11" style="stroke:#222222;stroke-width:1;"/><ellipse cx="435.5997" cy="1408.7542" fill="#222222" rx="6" ry="6" style="stroke:#222222;stroke-width:1;"/><polygon fill="#FFF7E6" points="413.6218,1275.575,457.5775,1275.575,469.5775,1287.575,457.5775,1299.575,413.6218,1299.575,401.6218,1287.575,413.6218,1275.575" style="stroke:#555555;stroke-width:0.5;"/><text fill="#000000" font-family="Arial" font-size="11" lengthAdjust="spacing" textLength="17.0829" x="439.5997" y="1311.334">yes</text><text fill="#000000" font-family="Arial" font-size="11" lengthAdjust="spacing" textLength="43.9557" x="413.6218" y="1291.843">Dry run?</text><rect fill="#F8F8F8" height="36.3441" rx="12.5" ry="12.5" style="stroke:#555555;stroke-width:0.5;" width="207.7533" x="331.723" y="1461.7542"/><text fill="#000000" font-family="Arial" font-size="12" lengthAdjust="spacing" textLength="187.7533" x="341.723" y="1484.5823">Create unique output JSONL path</text><polygon fill="#FFF7E6" points="327.6849,1518.0983,543.5144,1518.0983,555.5144,1533.0802,543.5144,1548.0621,327.6849,1548.0621,315.6849,1533.0802,327.6849,1518.0983" style="stroke:#555555;stroke-width:0.5;"/><text fill="#000000" font-family="Arial" font-size="11" lengthAdjust="spacing" textLength="173.2378" x="327.6849" y="1529.8572">System requires corpus isolation?</text><text fill="#000000" font-family="Arial" font-size="11" lengthAdjust="spacing" textLength="215.8295" x="327.6849" y="1544.8391">ACE, Claude Code Local, Codex, ClawCode</text><text fill="#000000" font-family="Arial" font-size="11" lengthAdjust="spacing" textLength="17.0829" x="298.6021" y="1529.8572">yes</text><text fill="#000000" font-family="Arial" font-size="11" lengthAdjust="spacing" textLength="13.4529" x="555.5144" y="1529.8572">no</text><rect fill="#F8F8F8" height="36.3441" rx="12.5" ry="12.5" style="stroke:#555555;stroke-width:0.5;" width="127.1008" x="142.4981" y="1630.0621"/><text fill="#000000" font-family="Arial" font-size="12" lengthAdjust="spacing" textLength="107.1008" x="152.4981" y="1652.8902">Take next question</text><rect fill="#F8F8F8" height="52.6882" rx="12.5" ry="12.5" style="stroke:#555555;stroke-width:0.5;" width="204.5013" x="103.7978" y="1701.4062"/><text fill="#000000" font-family="Arial" font-size="12" lengthAdjust="spacing" textLength="184.5013" x="113.7978" y="1724.2343">Copy corpus to tmpfs (/dev/shm)</text><text fill="#000000" font-family="Arial" font-size="12" lengthAdjust="spacing" textLength="154.1051" x="113.7978" y="1740.5784">or /tmp if space insufficient</text><rect fill="#F8F8F8" height="52.6882" rx="12.5" ry="12.5" style="stroke:#555555;stroke-width:0.5;" width="226.3415" x="92.8777" y="1774.0944"/><text fill="#000000" font-family="Arial" font-size="12" lengthAdjust="spacing" textLength="206.3415" x="102.8777" y="1796.9225">Capture pre-run filesystem snapshot</text><text fill="#000000" font-family="Arial" font-size="12" lengthAdjust="spacing" textLength="176.0052" x="102.8777" y="1813.2667">(CorpusSnapshot.pre_run_tree)</text><rect fill="#F8F8F8" height="36.3441" rx="12.5" ry="12.5" style="stroke:#555555;stroke-width:0.5;" width="178.1597" x="116.9686" y="1861.7827"/><text fill="#000000" font-family="Arial" font-size="12" lengthAdjust="spacing" textLength="158.1597" x="126.9686" y="1884.6108">Instantiate runner &#8594; setup()</text><rect fill="#F8F8F8" height="36.3441" rx="12.5" ry="12.5" style="stroke:#555555;stroke-width:0.5;" width="138.5488" x="136.7741" y="1933.1268"/><text fill="#000000" font-family="Arial" font-size="12" lengthAdjust="spacing" textLength="118.5488" x="146.7741" y="1955.9549">runner.run(question)</text><rect fill="#F8F8F8" height="36.3441" rx="12.5" ry="12.5" style="stroke:#555555;stroke-width:0.5;" width="123.6207" x="144.2381" y="2004.4709"/><text fill="#000000" font-family="Arial" font-size="12" lengthAdjust="spacing" textLength="103.6207" x="154.2381" y="2027.299">runner.teardown()</text><rect fill="#F8F8F8" height="52.6882" rx="12.5" ry="12.5" style="stroke:#555555;stroke-width:0.5;" width="231.9575" x="90.0697" y="2068.1591"/><text fill="#000000" font-family="Arial" font-size="12" lengthAdjust="spacing" textLength="211.9575" x="100.0697" y="2090.9872">Capture post-run filesystem snapshot</text><text fill="#000000" font-family="Arial" font-size="12" lengthAdjust="spacing" textLength="181.6213" x="100.0697" y="2107.3313">(CorpusSnapshot.post_run_tree)</text><polygon fill="#FFF7E6" points="168.4783,2148.1915,243.6187,2148.1915,255.6187,2160.1915,243.6187,2172.1915,168.4783,2172.1915,156.4783,2160.1915,168.4783,2148.1915" style="stroke:#555555;stroke-width:0.5;"/><text fill="#000000" font-family="Arial" font-size="11" lengthAdjust="spacing" textLength="75.1405" x="168.4783" y="2164.4594">Run succeeds?</text><text fill="#000000" font-family="Arial" font-size="11" lengthAdjust="spacing" textLength="17.0829" x="139.3954" y="2156.9685">yes</text><text fill="#000000" font-family="Arial" font-size="11" lengthAdjust="spacing" textLength="13.4529" x="255.6187" y="2156.9685">no</text><rect fill="#F8F8F8" height="52.6882" rx="12.5" ry="12.5" style="stroke:#555555;stroke-width:0.5;" width="178.4012" x="11.7043" y="2182.1915"/><text fill="#000000" font-family="Arial" font-size="12" lengthAdjust="spacing" textLength="158.4012" x="21.7043" y="2205.0196">Collect answer text, metrics,</text><text fill="#000000" font-family="Arial" font-size="12" lengthAdjust="spacing" textLength="123.1449" x="21.7043" y="2221.3637">optional session trace</text><rect fill="#F8F8F8" height="36.3441" rx="12.5" ry="12.5" style="stroke:#555555;stroke-width:0.5;" width="202.1733" x="210.1054" y="2182.1915"/><text fill="#000000" font-family="Arial" font-size="12" lengthAdjust="spacing" textLength="182.1733" x="220.1054" y="2205.0196">Store answer_error in RunResult</text><polygon fill="#FFF7E6" points="206.0485,2240.8797,218.0485,2252.8797,206.0485,2264.8797,194.0485,2252.8797,206.0485,2240.8797" style="stroke:#555555;stroke-width:0.5;"/><rect fill="#F8F8F8" height="36.3441" rx="12.5" ry="12.5" style="stroke:#555555;stroke-width:0.5;" width="227.5295" x="92.2838" y="2299.8797"/><text fill="#000000" font-family="Arial" font-size="12" lengthAdjust="spacing" textLength="207.5295" x="102.2838" y="2322.7078">Attach CorpusSnapshot to RunResult</text><rect fill="#F8F8F8" height="36.3441" rx="12.5" ry="12.5" style="stroke:#555555;stroke-width:0.5;" width="258.4057" x="76.8456" y="2356.2238"/><text fill="#000000" font-family="Arial" font-size="12" lengthAdjust="spacing" textLength="238.4057" x="86.8456" y="2379.0519">Append RunResult JSON as one JSONL row</text><rect fill="#F8F8F8" height="36.3441" rx="12.5" ry="12.5" style="stroke:#555555;stroke-width:0.5;" width="111.3687" x="150.3642" y="2412.5679"/><text fill="#000000" font-family="Arial" font-size="12" lengthAdjust="spacing" textLength="91.3687" x="160.3642" y="2435.396">Flush output file</text><rect fill="#F8F8F8" height="36.3441" rx="12.5" ry="12.5" style="stroke:#555555;stroke-width:0.5;" width="199.7013" x="106.1978" y="2468.912"/><text fill="#000000" font-family="Arial" font-size="12" lengthAdjust="spacing" textLength="179.7013" x="116.1978" y="2491.7401">Remove temporary corpus copy</text><polygon fill="#FFF7E6" points="206.0485,1558.0621,218.0485,1570.0621,206.0485,1582.0621,194.0485,1570.0621,206.0485,1558.0621" style="stroke:#555555;stroke-width:0.5;"/><polygon fill="#FFF7E6" points="163.2588,2525.2562,248.8382,2525.2562,260.8382,2537.2562,248.8382,2549.2562,163.2588,2549.2562,151.2588,2537.2562,163.2588,2525.2562" style="stroke:#555555;stroke-width:0.5;"/><text fill="#000000" font-family="Arial" font-size="11" lengthAdjust="spacing" textLength="85.5794" x="163.2588" y="2541.5241">More questions?</text><text fill="#000000" font-family="Arial" font-size="11" lengthAdjust="spacing" textLength="17.0829" x="260.8382" y="2534.0332">yes</text><rect fill="#F8F8F8" height="52.6882" rx="12.5" ry="12.5" style="stroke:#555555;stroke-width:0.5;" width="166.077" x="582.1124" y="1558.0621"/><text fill="#000000" font-family="Arial" font-size="12" lengthAdjust="spacing" textLength="146.077" x="592.1124" y="1580.8902">Instantiate system runner</text><text fill="#000000" font-family="Arial" font-size="12" lengthAdjust="spacing" textLength="134.701" x="592.1124" y="1597.2343">through runner registry</text><rect fill="#F8F8F8" height="36.3441" rx="12.5" ry="12.5" style="stroke:#555555;stroke-width:0.5;" width="100.9886" x="614.6566" y="1645.7503"/><text fill="#000000" font-family="Arial" font-size="12" lengthAdjust="spacing" textLength="80.9886" x="624.6566" y="1668.5784">runner.setup()</text><rect fill="#F8F8F8" height="36.3441" rx="12.5" ry="12.5" style="stroke:#555555;stroke-width:0.5;" width="127.1008" x="601.6005" y="1774.0944"/><text fill="#000000" font-family="Arial" font-size="12" lengthAdjust="spacing" textLength="107.1008" x="611.6005" y="1796.9225">Take next question</text><rect fill="#F8F8F8" height="36.3441" rx="12.5" ry="12.5" style="stroke:#555555;stroke-width:0.5;" width="138.5488" x="595.8765" y="1845.4386"/><text fill="#000000" font-family="Arial" font-size="12" lengthAdjust="spacing" textLength="118.5488" x="605.8765" y="1868.2667">runner.run(question)</text><polygon fill="#FFF7E6" points="627.5807,1916.7827,702.7211,1916.7827,714.7211,1928.7827,702.7211,1940.7827,627.5807,1940.7827,615.5807,1928.7827,627.5807,1916.7827" style="stroke:#555555;stroke-width:0.5;"/><text fill="#000000" font-family="Arial" font-size="11" lengthAdjust="spacing" textLength="75.1405" x="627.5807" y="1933.0506">Run succeeds?</text><text fill="#000000" font-family="Arial" font-size="11" lengthAdjust="spacing" textLength="17.0829" x="598.4978" y="1925.5597">yes</text><text fill="#000000" font-family="Arial" font-size="11" lengthAdjust="spacing" textLength="13.4529" x="714.7211" y="1925.5597">no</text><rect fill="#F8F8F8" height="52.6882" rx="12.5" ry="12.5" style="stroke:#555555;stroke-width:0.5;" width="171.1051" x="476.2788" y="1950.7827"/><text fill="#000000" font-family="Arial" font-size="12" lengthAdjust="spacing" textLength="110.1848" x="486.2788" y="1973.6108">Collect answer text,</text><text fill="#000000" font-family="Arial" font-size="12" lengthAdjust="spacing" textLength="151.1051" x="486.2788" y="1989.9549">metrics, and optional trace</text><rect fill="#F8F8F8" height="52.6882" rx="12.5" ry="12.5" style="stroke:#555555;stroke-width:0.5;" width="202.1733" x="667.3838" y="1950.7827"/><text fill="#000000" font-family="Arial" font-size="12" lengthAdjust="spacing" textLength="182.1733" x="677.3838" y="1973.6108">Store answer_error in RunResult</text><text fill="#000000" font-family="Arial" font-size="12" lengthAdjust="spacing" textLength="164.0292" x="677.3838" y="1989.9549">instead of aborting the batch</text><polygon fill="#FFF7E6" points="665.1509,2009.4709,677.1509,2021.4709,665.1509,2033.4709,653.1509,2021.4709,665.1509,2009.4709" style="stroke:#555555;stroke-width:0.5;"/><rect fill="#F8F8F8" height="52.6882" rx="12.5" ry="12.5" style="stroke:#555555;stroke-width:0.5;" width="155.709" x="587.2964" y="2060.815"/><text fill="#000000" font-family="Arial" font-size="12" lengthAdjust="spacing" textLength="135.709" x="597.2964" y="2083.6431">Append RunResult JSON</text><text fill="#000000" font-family="Arial" font-size="12" lengthAdjust="spacing" textLength="99.5767" x="597.2964" y="2099.9872">as one JSONL row</text><rect fill="#F8F8F8" height="36.3441" rx="12.5" ry="12.5" style="stroke:#555555;stroke-width:0.5;" width="111.3687" x="609.4666" y="2140.8474"/><text fill="#000000" font-family="Arial" font-size="12" lengthAdjust="spacing" textLength="91.3687" x="619.4666" y="2163.6755">Flush output file</text><polygon fill="#FFF7E6" points="665.1509,1717.0944,677.1509,1729.0944,665.1509,1741.0944,653.1509,1729.0944,665.1509,1717.0944" style="stroke:#555555;stroke-width:0.5;"/><polygon fill="#FFF7E6" points="622.3612,2225.1915,707.9406,2225.1915,719.9406,2237.1915,707.9406,2249.1915,622.3612,2249.1915,610.3612,2237.1915,622.3612,2225.1915" style="stroke:#555555;stroke-width:0.5;"/><text fill="#000000" font-family="Arial" font-size="11" lengthAdjust="spacing" textLength="85.5794" x="622.3612" y="2241.4594">More questions?</text><text fill="#000000" font-family="Arial" font-size="11" lengthAdjust="spacing" textLength="17.0829" x="719.9406" y="2233.9685">yes</text><rect fill="#F8F8F8" height="36.3441" rx="12.5" ry="12.5" style="stroke:#555555;stroke-width:0.5;" width="123.6207" x="603.3405" y="2284.1915"/><text fill="#000000" font-family="Arial" font-size="12" lengthAdjust="spacing" textLength="103.6207" x="613.3405" y="2307.0196">runner.teardown()</text><polygon fill="#FFF7E6" points="435.5997,2555.2562,447.5997,2567.2562,435.5997,2579.2562,423.5997,2567.2562,435.5997,2555.2562" style="stroke:#555555;stroke-width:0.5;"/><rect fill="#F8F8F8" height="36.3441" rx="12.5" ry="12.5" style="stroke:#555555;stroke-width:0.5;" width="131.6848" x="369.7573" y="2599.2562"/><text fill="#000000" font-family="Arial" font-size="12" lengthAdjust="spacing" textLength="111.6848" x="379.7573" y="2622.0843">Print result file path</text><ellipse cx="435.5997" cy="2666.6003" fill="none" rx="11" ry="11" style="stroke:#222222;stroke-width:1;"/><ellipse cx="435.5997" cy="2666.6003" fill="#222222" rx="6" ry="6" style="stroke:#222222;stroke-width:1;"/><line style="stroke:#181818;stroke-width:1;" x1="435.5997" x2="435.5997" y1="70.0679" y2="90.0679"/><polygon fill="#181818" points="431.5997,80.0679,435.5997,90.0679,439.5997,80.0679,435.5997,84.0679" style="stroke:#181818;stroke-width:1;"/><line style="stroke:#181818;stroke-width:1;" x1="435.5997" x2="435.5997" y1="303.0712" y2="323.0712"/><polygon fill="#181818" points="431.5997,313.0712,435.5997,323.0712,439.5997,313.0712,435.5997,317.0712" style="stroke:#181818;stroke-width:1;"/><line style="stroke:#181818;stroke-width:1;" x1="435.5997" x2="435.5997" y1="375.7594" y2="395.7594"/><polygon fill="#181818" points="431.5997,385.7594,435.5997,395.7594,439.5997,385.7594,435.5997,389.7594" style="stroke:#181818;stroke-width:1;"/><line style="stroke:#181818;stroke-width:1;" x1="435.5997" x2="435.5997" y1="432.1035" y2="452.1035"/><polygon fill="#181818" points="431.5997,442.1035,435.5997,452.1035,439.5997,442.1035,435.5997,446.1035" style="stroke:#181818;stroke-width:1;"/><line style="stroke:#181818;stroke-width:1;" x1="435.5997" x2="435.5997" y1="504.7917" y2="524.7917"/><polygon fill="#181818" points="431.5997,514.7917,435.5997,524.7917,439.5997,514.7917,435.5997,518.7917" style="stroke:#181818;stroke-width:1;"/><line style="stroke:#181818;stroke-width:1;" x1="435.5997" x2="435.5997" y1="577.48" y2="597.48"/><polygon fill="#181818" points="431.5997,587.48,435.5997,597.48,439.5997,587.48,435.5997,591.48" style="stroke:#181818;stroke-width:1;"/><line style="stroke:#181818;stroke-width:1;" x1="435.5997" x2="435.5997" y1="650.1682" y2="670.1682"/><polygon fill="#181818" points="431.5997,660.1682,435.5997,670.1682,439.5997,660.1682,435.5997,664.1682" style="stroke:#181818;stroke-width:1;"/><line style="stroke:#181818;stroke-width:1;" x1="435.5997" x2="435.5997" y1="241.2361" y2="266.727"/><polygon fill="#181818" points="431.5997,256.727,435.5997,266.727,439.5997,256.727,435.5997,260.727" style="stroke:#181818;stroke-width:1;"/><line style="stroke:#181818;stroke-width:1;" x1="530.6821" x2="589.5567" y1="229.2361" y2="229.2361"/><polygon fill="#181818" points="585.5567,484.7917,589.5567,494.7917,593.5567,484.7917,589.5567,488.7917" style="stroke:#181818;stroke-width:1;"/><line style="stroke:#181818;stroke-width:1;" x1="589.5567" x2="589.5567" y1="229.2361" y2="754.8564"/><line style="stroke:#181818;stroke-width:1;" x1="589.5567" x2="447.5997" y1="754.8564" y2="754.8564"/><polygon fill="#181818" points="457.5997,750.8564,447.5997,754.8564,457.5997,758.8564,453.5997,754.8564" style="stroke:#181818;stroke-width:1;"/><line style="stroke:#181818;stroke-width:1;" x1="435.5997" x2="435.5997" y1="722.8564" y2="742.8564"/><polygon fill="#181818" points="431.5997,732.8564,435.5997,742.8564,439.5997,732.8564,435.5997,736.8564" style="stroke:#181818;stroke-width:1;"/><line style="stroke:#181818;stroke-width:1;" x1="435.5997" x2="435.5997" y1="126.412" y2="217.2361"/><polygon fill="#181818" points="431.5997,207.2361,435.5997,217.2361,439.5997,207.2361,435.5997,211.2361" style="stroke:#181818;stroke-width:1;"/><line style="stroke:#181818;stroke-width:1;" x1="435.5997" x2="435.5997" y1="766.8564" y2="786.8564"/><polygon fill="#181818" points="431.5997,776.8564,435.5997,786.8564,439.5997,776.8564,435.5997,780.8564" style="stroke:#181818;stroke-width:1;"/><line style="stroke:#181818;stroke-width:1;" x1="435.5997" x2="435.5997" y1="872.2329" y2="892.2329"/><polygon fill="#181818" points="431.5997,882.2329,435.5997,892.2329,439.5997,882.2329,435.5997,886.2329" style="stroke:#181818;stroke-width:1;"/><line style="stroke:#181818;stroke-width:1;" x1="435.5997" x2="435.5997" y1="1140.2471" y2="1167.575"/><polygon fill="#181818" points="431.5997,1157.575,435.5997,1167.575,439.5997,1157.575,435.5997,1161.575" style="stroke:#181818;stroke-width:1;"/><line style="stroke:#181818;stroke-width:1;" x1="435.5997" x2="435.5997" y1="1078.412" y2="1103.903"/><polygon fill="#181818" points="431.5997,1093.903,435.5997,1103.903,439.5997,1093.903,435.5997,1097.903" style="stroke:#181818;stroke-width:1;"/><line style="stroke:#181818;stroke-width:1;" x1="511.2727" x2="526.1962" y1="1066.412" y2="1066.412"/><polygon fill="#181818" points="522.1962,1137.575,526.1962,1147.575,530.1962,1137.575,526.1962,1141.575" style="stroke:#181818;stroke-width:1;"/><line style="stroke:#181818;stroke-width:1;" x1="526.1962" x2="526.1962" y1="1066.412" y2="1211.575"/><line style="stroke:#181818;stroke-width:1;" x1="526.1962" x2="435.5997" y1="1211.575" y2="1211.575"/><line style="stroke:#181818;stroke-width:1;" x1="435.5997" x2="435.5997" y1="1211.575" y2="1231.575"/><polygon fill="#181818" points="431.5997,1221.575,435.5997,1231.575,439.5997,1221.575,435.5997,1225.575" style="stroke:#181818;stroke-width:1;"/><line style="stroke:#181818;stroke-width:1;" x1="435.5997" x2="435.5997" y1="1034.412" y2="1054.412"/><polygon fill="#181818" points="431.5997,1044.412,435.5997,1054.412,439.5997,1044.412,435.5997,1048.412" style="stroke:#181818;stroke-width:1;"/><line style="stroke:#181818;stroke-width:1;" x1="435.5997" x2="435.5997" y1="972.577" y2="998.0679"/><polygon fill="#181818" points="431.5997,988.0679,435.5997,998.0679,439.5997,988.0679,435.5997,992.0679" style="stroke:#181818;stroke-width:1;"/><line style="stroke:#181818;stroke-width:1;" x1="506.2898" x2="548.1962" y1="960.577" y2="960.577"/><polygon fill="#181818" points="544.1962,1095.903,548.1962,1105.903,552.1962,1095.903,548.1962,1099.903" style="stroke:#181818;stroke-width:1;"/><line style="stroke:#181818;stroke-width:1;" x1="548.1962" x2="548.1962" y1="960.577" y2="1243.575"/><line style="stroke:#181818;stroke-width:1;" x1="548.1962" x2="447.5997" y1="1243.575" y2="1243.575"/><polygon fill="#181818" points="457.5997,1239.575,447.5997,1243.575,457.5997,1247.575,453.5997,1243.575" style="stroke:#181818;stroke-width:1;"/><line style="stroke:#181818;stroke-width:1;" x1="435.5997" x2="435.5997" y1="928.577" y2="948.577"/><polygon fill="#181818" points="431.5997,938.577,435.5997,948.577,439.5997,938.577,435.5997,942.577" style="stroke:#181818;stroke-width:1;"/><line style="stroke:#181818;stroke-width:1;" x1="435.5997" x2="435.5997" y1="1377.7542" y2="1397.7542"/><polygon fill="#181818" points="431.5997,1387.7542,435.5997,1397.7542,439.5997,1387.7542,435.5997,1391.7542" style="stroke:#181818;stroke-width:1;"/><line style="stroke:#181818;stroke-width:1;" x1="435.5997" x2="435.5997" y1="1299.575" y2="1325.066"/><polygon fill="#181818" points="431.5997,1315.066,435.5997,1325.066,439.5997,1315.066,435.5997,1319.066" style="stroke:#181818;stroke-width:1;"/><line style="stroke:#181818;stroke-width:1;" x1="469.5775" x2="534.4103" y1="1287.575" y2="1287.575"/><polygon fill="#181818" points="530.4103,1366.9101,534.4103,1376.9101,538.4103,1366.9101,534.4103,1370.9101" style="stroke:#181818;stroke-width:1;"/><line style="stroke:#181818;stroke-width:1;" x1="534.4103" x2="534.4103" y1="1287.575" y2="1441.7542"/><line style="stroke:#181818;stroke-width:1;" x1="534.4103" x2="435.5997" y1="1441.7542" y2="1441.7542"/><line style="stroke:#181818;stroke-width:1;" x1="435.5997" x2="435.5997" y1="1441.7542" y2="1461.7542"/><polygon fill="#181818" points="431.5997,1451.7542,435.5997,1461.7542,439.5997,1451.7542,435.5997,1455.7542" style="stroke:#181818;stroke-width:1;"/><line style="stroke:#181818;stroke-width:1;" x1="435.5997" x2="435.5997" y1="1255.575" y2="1275.575"/><polygon fill="#181818" points="431.5997,1265.575,435.5997,1275.575,439.5997,1265.575,435.5997,1269.575" style="stroke:#181818;stroke-width:1;"/><line style="stroke:#181818;stroke-width:1;" x1="206.0485" x2="206.0485" y1="1666.4062" y2="1701.4062"/><polygon fill="#181818" points="202.0485,1691.4062,206.0485,1701.4062,210.0485,1691.4062,206.0485,1695.4062" style="stroke:#181818;stroke-width:1;"/><line style="stroke:#181818;stroke-width:1;" x1="206.0485" x2="206.0485" y1="1754.0944" y2="1774.0944"/><polygon fill="#181818" points="202.0485,1764.0944,206.0485,1774.0944,210.0485,1764.0944,206.0485,1768.0944" style="stroke:#181818;stroke-width:1;"/><line style="stroke:#181818;stroke-width:1;" x1="206.0485" x2="206.0485" y1="1826.7827" y2="1861.7827"/><polygon fill="#181818" points="202.0485,1851.7827,206.0485,1861.7827,210.0485,1851.7827,206.0485,1855.7827" style="stroke:#181818;stroke-width:1;"/><line style="stroke:#181818;stroke-width:1;" x1="206.0485" x2="206.0485" y1="1898.1268" y2="1933.1268"/><polygon fill="#181818" points="202.0485,1923.1268,206.0485,1933.1268,210.0485,1923.1268,206.0485,1927.1268" style="stroke:#181818;stroke-width:1;"/><line style="stroke:#181818;stroke-width:1;" x1="206.0485" x2="206.0485" y1="1969.4709" y2="2004.4709"/><polygon fill="#181818" points="202.0485,1994.4709,206.0485,2004.4709,210.0485,1994.4709,206.0485,1998.4709" style="stroke:#181818;stroke-width:1;"/><line style="stroke:#181818;stroke-width:1;" x1="206.0485" x2="206.0485" y1="2040.815" y2="2068.1591"/><polygon fill="#181818" points="202.0485,2058.1591,206.0485,2068.1591,210.0485,2058.1591,206.0485,2062.1591" style="stroke:#181818;stroke-width:1;"/><line style="stroke:#181818;stroke-width:1;" x1="156.4783" x2="100.9049" y1="2160.1915" y2="2160.1915"/><line style="stroke:#181818;stroke-width:1;" x1="100.9049" x2="100.9049" y1="2160.1915" y2="2182.1915"/><polygon fill="#181818" points="96.9049,2172.1915,100.9049,2182.1915,104.9049,2172.1915,100.9049,2176.1915" style="stroke:#181818;stroke-width:1;"/><line style="stroke:#181818;stroke-width:1;" x1="255.6187" x2="311.1921" y1="2160.1915" y2="2160.1915"/><line style="stroke:#181818;stroke-width:1;" x1="311.1921" x2="311.1921" y1="2160.1915" y2="2182.1915"/><polygon fill="#181818" points="307.1921,2172.1915,311.1921,2182.1915,315.1921,2172.1915,311.1921,2176.1915" style="stroke:#181818;stroke-width:1;"/><line style="stroke:#181818;stroke-width:1;" x1="100.9049" x2="100.9049" y1="2234.8797" y2="2252.8797"/><line style="stroke:#181818;stroke-width:1;" x1="100.9049" x2="194.0485" y1="2252.8797" y2="2252.8797"/><polygon fill="#181818" points="184.0485,2248.8797,194.0485,2252.8797,184.0485,2256.8797,188.0485,2252.8797" style="stroke:#181818;stroke-width:1;"/><line style="stroke:#181818;stroke-width:1;" x1="311.1921" x2="311.1921" y1="2218.5356" y2="2252.8797"/><line style="stroke:#181818;stroke-width:1;" x1="311.1921" x2="218.0485" y1="2252.8797" y2="2252.8797"/><polygon fill="#181818" points="228.0485,2248.8797,218.0485,2252.8797,228.0485,2256.8797,224.0485,2252.8797" style="stroke:#181818;stroke-width:1;"/><line style="stroke:#181818;stroke-width:1;" x1="206.0485" x2="206.0485" y1="2120.8474" y2="2148.1915"/><polygon fill="#181818" points="202.0485,2138.1915,206.0485,2148.1915,210.0485,2138.1915,206.0485,2142.1915" style="stroke:#181818;stroke-width:1;"/><line style="stroke:#181818;stroke-width:1;" x1="206.0485" x2="206.0485" y1="2264.8797" y2="2299.8797"/><polygon fill="#181818" points="202.0485,2289.8797,206.0485,2299.8797,210.0485,2289.8797,206.0485,2293.8797" style="stroke:#181818;stroke-width:1;"/><line style="stroke:#181818;stroke-width:1;" x1="206.0485" x2="206.0485" y1="2336.2238" y2="2356.2238"/><polygon fill="#181818" points="202.0485,2346.2238,206.0485,2356.2238,210.0485,2346.2238,206.0485,2350.2238" style="stroke:#181818;stroke-width:1;"/><line style="stroke:#181818;stroke-width:1;" x1="206.0485" x2="206.0485" y1="2392.5679" y2="2412.5679"/><polygon fill="#181818" points="202.0485,2402.5679,206.0485,2412.5679,210.0485,2402.5679,206.0485,2406.5679" style="stroke:#181818;stroke-width:1;"/><line style="stroke:#181818;stroke-width:1;" x1="206.0485" x2="206.0485" y1="2448.912" y2="2468.912"/><polygon fill="#181818" points="202.0485,2458.912,206.0485,2468.912,210.0485,2458.912,206.0485,2462.912" style="stroke:#181818;stroke-width:1;"/><line style="stroke:#181818;stroke-width:1;" x1="206.0485" x2="206.0485" y1="1582.0621" y2="1630.0621"/><polygon fill="#181818" points="202.0485,1620.0621,206.0485,1630.0621,210.0485,1620.0621,206.0485,1624.0621" style="stroke:#181818;stroke-width:1;"/><line style="stroke:#181818;stroke-width:1;" x1="260.8382" x2="434.2788" y1="2537.2562" y2="2537.2562"/><polygon fill="#181818" points="430.2788,2092.6591,434.2788,2082.6591,438.2788,2092.6591,434.2788,2088.6591" style="stroke:#181818;stroke-width:1;"/><line style="stroke:#181818;stroke-width:1;" x1="434.2788" x2="434.2788" y1="1570.0621" y2="2537.2562"/><line style="stroke:#181818;stroke-width:1;" x1="434.2788" x2="218.0485" y1="1570.0621" y2="1570.0621"/><polygon fill="#181818" points="228.0485,1566.0621,218.0485,1570.0621,228.0485,1574.0621,224.0485,1570.0621" style="stroke:#181818;stroke-width:1;"/><line style="stroke:#181818;stroke-width:1;" x1="206.0485" x2="206.0485" y1="2505.2562" y2="2525.2562"/><polygon fill="#181818" points="202.0485,2515.2562,206.0485,2525.2562,210.0485,2515.2562,206.0485,2519.2562" style="stroke:#181818;stroke-width:1;"/><line style="stroke:#181818;stroke-width:1;" x1="665.1509" x2="665.1509" y1="1610.7503" y2="1645.7503"/><polygon fill="#181818" points="661.1509,1635.7503,665.1509,1645.7503,669.1509,1635.7503,665.1509,1639.7503" style="stroke:#181818;stroke-width:1;"/><line style="stroke:#181818;stroke-width:1;" x1="665.1509" x2="665.1509" y1="1810.4386" y2="1845.4386"/><polygon fill="#181818" points="661.1509,1835.4386,665.1509,1845.4386,669.1509,1835.4386,665.1509,1839.4386" style="stroke:#181818;stroke-width:1;"/><line style="stroke:#181818;stroke-width:1;" x1="615.5807" x2="561.8313" y1="1928.7827" y2="1928.7827"/><line style="stroke:#181818;stroke-width:1;" x1="561.8313" x2="561.8313" y1="1928.7827" y2="1950.7827"/><polygon fill="#181818" points="557.8313,1940.7827,561.8313,1950.7827,565.8313,1940.7827,561.8313,1944.7827" style="stroke:#181818;stroke-width:1;"/><line style="stroke:#181818;stroke-width:1;" x1="714.7211" x2="768.4705" y1="1928.7827" y2="1928.7827"/><line style="stroke:#181818;stroke-width:1;" x1="768.4705" x2="768.4705" y1="1928.7827" y2="1950.7827"/><polygon fill="#181818" points="764.4705,1940.7827,768.4705,1950.7827,772.4705,1940.7827,768.4705,1944.7827" style="stroke:#181818;stroke-width:1;"/><line style="stroke:#181818;stroke-width:1;" x1="561.8313" x2="561.8313" y1="2003.4709" y2="2021.4709"/><line style="stroke:#181818;stroke-width:1;" x1="561.8313" x2="653.1509" y1="2021.4709" y2="2021.4709"/><polygon fill="#181818" points="643.1509,2017.4709,653.1509,2021.4709,643.1509,2025.4709,647.1509,2021.4709" style="stroke:#181818;stroke-width:1;"/><line style="stroke:#181818;stroke-width:1;" x1="768.4705" x2="768.4705" y1="2003.4709" y2="2021.4709"/><line style="stroke:#181818;stroke-width:1;" x1="768.4705" x2="677.1509" y1="2021.4709" y2="2021.4709"/><polygon fill="#181818" points="687.1509,2017.4709,677.1509,2021.4709,687.1509,2025.4709,683.1509,2021.4709" style="stroke:#181818;stroke-width:1;"/><line style="stroke:#181818;stroke-width:1;" x1="665.1509" x2="665.1509" y1="1881.7827" y2="1916.7827"/><polygon fill="#181818" points="661.1509,1906.7827,665.1509,1916.7827,669.1509,1906.7827,665.1509,1910.7827" style="stroke:#181818;stroke-width:1;"/><line style="stroke:#181818;stroke-width:1;" x1="665.1509" x2="665.1509" y1="2033.4709" y2="2060.815"/><polygon fill="#181818" points="661.1509,2050.815,665.1509,2060.815,669.1509,2050.815,665.1509,2054.815" style="stroke:#181818;stroke-width:1;"/><line style="stroke:#181818;stroke-width:1;" x1="665.1509" x2="665.1509" y1="2113.5032" y2="2140.8474"/><polygon fill="#181818" points="661.1509,2130.8474,665.1509,2140.8474,669.1509,2130.8474,665.1509,2134.8474" style="stroke:#181818;stroke-width:1;"/><line style="stroke:#181818;stroke-width:1;" x1="665.1509" x2="665.1509" y1="1741.0944" y2="1774.0944"/><polygon fill="#181818" points="661.1509,1764.0944,665.1509,1774.0944,669.1509,1764.0944,665.1509,1768.0944" style="stroke:#181818;stroke-width:1;"/><line style="stroke:#181818;stroke-width:1;" x1="719.9406" x2="883.5571" y1="2237.1915" y2="2237.1915"/><polygon fill="#181818" points="879.5571,1993.2988,883.5571,1983.2988,887.5571,1993.2988,883.5571,1989.2988" style="stroke:#181818;stroke-width:1;"/><line style="stroke:#181818;stroke-width:1;" x1="883.5571" x2="883.5571" y1="1729.0944" y2="2237.1915"/><line style="stroke:#181818;stroke-width:1;" x1="883.5571" x2="677.1509" y1="1729.0944" y2="1729.0944"/><polygon fill="#181818" points="687.1509,1725.0944,677.1509,1729.0944,687.1509,1733.0944,683.1509,1729.0944" style="stroke:#181818;stroke-width:1;"/><line style="stroke:#181818;stroke-width:1;" x1="665.1509" x2="665.1509" y1="2177.1915" y2="2225.1915"/><polygon fill="#181818" points="661.1509,2215.1915,665.1509,2225.1915,669.1509,2215.1915,665.1509,2219.1915" style="stroke:#181818;stroke-width:1;"/><line style="stroke:#181818;stroke-width:1;" x1="665.1509" x2="665.1509" y1="1682.0944" y2="1717.0944"/><polygon fill="#181818" points="661.1509,1707.0944,665.1509,1717.0944,669.1509,1707.0944,665.1509,1711.0944" style="stroke:#181818;stroke-width:1;"/><line style="stroke:#181818;stroke-width:1;" x1="665.1509" x2="665.1509" y1="2249.1915" y2="2284.1915"/><polygon fill="#181818" points="661.1509,2274.1915,665.1509,2284.1915,669.1509,2274.1915,665.1509,2278.1915" style="stroke:#181818;stroke-width:1;"/><line style="stroke:#181818;stroke-width:1;" x1="315.6849" x2="206.0485" y1="1533.0802" y2="1533.0802"/><line style="stroke:#181818;stroke-width:1;" x1="206.0485" x2="206.0485" y1="1533.0802" y2="1558.0621"/><polygon fill="#181818" points="202.0485,1548.0621,206.0485,1558.0621,210.0485,1548.0621,206.0485,1552.0621" style="stroke:#181818;stroke-width:1;"/><line style="stroke:#181818;stroke-width:1;" x1="555.5144" x2="665.1509" y1="1533.0802" y2="1533.0802"/><line style="stroke:#181818;stroke-width:1;" x1="665.1509" x2="665.1509" y1="1533.0802" y2="1558.0621"/><polygon fill="#181818" points="661.1509,1548.0621,665.1509,1558.0621,669.1509,1548.0621,665.1509,1552.0621" style="stroke:#181818;stroke-width:1;"/><line style="stroke:#181818;stroke-width:1;" x1="206.0485" x2="206.0485" y1="2549.2562" y2="2567.2562"/><line style="stroke:#181818;stroke-width:1;" x1="206.0485" x2="423.5997" y1="2567.2562" y2="2567.2562"/><polygon fill="#181818" points="413.5997,2563.2562,423.5997,2567.2562,413.5997,2571.2562,417.5997,2567.2562" style="stroke:#181818;stroke-width:1;"/><line style="stroke:#181818;stroke-width:1;" x1="665.1509" x2="665.1509" y1="2320.5356" y2="2567.2562"/><line style="stroke:#181818;stroke-width:1;" x1="665.1509" x2="447.5997" y1="2567.2562" y2="2567.2562"/><polygon fill="#181818" points="457.5997,2563.2562,447.5997,2567.2562,457.5997,2571.2562,453.5997,2567.2562" style="stroke:#181818;stroke-width:1;"/><line style="stroke:#181818;stroke-width:1;" x1="435.5997" x2="435.5997" y1="1498.0983" y2="1518.0983"/><polygon fill="#181818" points="431.5997,1508.0983,435.5997,1518.0983,439.5997,1508.0983,435.5997,1512.0983" style="stroke:#181818;stroke-width:1;"/><line style="stroke:#181818;stroke-width:1;" x1="435.5997" x2="435.5997" y1="2579.2562" y2="2599.2562"/><polygon fill="#181818" points="431.5997,2589.2562,435.5997,2599.2562,439.5997,2589.2562,435.5997,2593.2562" style="stroke:#181818;stroke-width:1;"/><line style="stroke:#181818;stroke-width:1;" x1="435.5997" x2="435.5997" y1="2635.6003" y2="2655.6003"/><polygon fill="#181818" points="431.5997,2645.6003,435.5997,2655.6003,439.5997,2645.6003,435.5997,2649.6003" style="stroke:#181818;stroke-width:1;"/><g class="legend" data-source-line="103"><rect fill="none" height="185.6113" rx="7.5" ry="7.5" style="stroke:#000000;stroke-width:1;" width="431.6084" x="452.9488" y="2688.6003"/><text fill="#000000" font-family="Arial" font-size="14" lengthAdjust="spacing" textLength="94.9336" x="457.9488" y="2708.5662">Main purpose:</text><text fill="#000000" font-family="Arial" font-size="14" lengthAdjust="spacing" textLength="252.517" x="457.9488" y="2727.6341">execute the same question set against</text><text fill="#000000" font-family="Arial" font-size="14" lengthAdjust="spacing" textLength="238.2791" x="457.9488" y="2746.702">different systems while preserving a</text><text fill="#000000" font-family="Arial" font-size="14" lengthAdjust="spacing" textLength="270.465" x="457.9488" y="2765.77">common result schema for later analysis.</text><text fill="#000000" font-family="Arial" font-size="14" font-weight="bold" lengthAdjust="spacing" textLength="33.3619" x="461.5888" y="2786.8379">Field</text><text fill="#000000" font-family="Arial" font-size="14" font-weight="bold" lengthAdjust="spacing" textLength="91.9237" x="671.1539" y="2786.8379">Populated by</text><text fill="#000000" font-family="Arial" font-size="14" lengthAdjust="spacing" textLength="200.0592" x="461.5888" y="2805.9058">answer_text, execution_time_s</text><text fill="#000000" font-family="Arial" font-size="14" lengthAdjust="spacing" textLength="70.8397" x="671.1539" y="2805.9058">all runners</text><text fill="#000000" font-family="Arial" font-size="14" lengthAdjust="spacing" textLength="202.2852" x="461.5888" y="2824.9737">tool_call_sequence, step_count</text><text fill="#000000" font-family="Arial" font-size="14" lengthAdjust="spacing" textLength="143.5694" x="671.1539" y="2824.9737">ACE, local CLI runners</text><text fill="#000000" font-family="Arial" font-size="14" lengthAdjust="spacing" textLength="85.4417" x="461.5888" y="2844.0416">token counts</text><text fill="#000000" font-family="Arial" font-size="14" lengthAdjust="spacing" textLength="204.7632" x="671.1539" y="2844.0416">runners with structured output</text><text fill="#000000" font-family="Arial" font-size="14" lengthAdjust="spacing" textLength="108.7516" x="461.5888" y="2863.1095">CorpusSnapshot</text><text fill="#000000" font-family="Arial" font-size="14" lengthAdjust="spacing" textLength="166.2074" x="671.1539" y="2863.1095">isolated-corpus runs only</text><line style="stroke:#000000;stroke-width:1;" x1="457.9488" x2="879.5571" y1="2771.8719" y2="2771.8719"/><line style="stroke:#000000;stroke-width:1;" x1="457.9488" x2="879.5571" y1="2790.9399" y2="2790.9399"/><line style="stroke:#000000;stroke-width:1;" x1="457.9488" x2="879.5571" y1="2810.0078" y2="2810.0078"/><line style="stroke:#000000;stroke-width:1;" x1="457.9488" x2="879.5571" y1="2829.0757" y2="2829.0757"/><line style="stroke:#000000;stroke-width:1;" x1="457.9488" x2="879.5571" y1="2848.1436" y2="2848.1436"/><line style="stroke:#000000;stroke-width:1;" x1="457.9488" x2="879.5571" y1="2867.2115" y2="2867.2115"/><line style="stroke:#000000;stroke-width:1;" x1="457.9488" x2="457.9488" y1="2771.8719" y2="2867.2115"/><line style="stroke:#000000;stroke-width:1;" x1="667.514" x2="667.514" y1="2771.8719" y2="2867.2115"/><line style="stroke:#000000;stroke-width:1;" x1="879.5571" x2="879.5571" y1="2771.8719" y2="2867.2115"/></g><?plantuml-src fLRBJYmt4DttLvIKpO0OMEKXo4DaO28YBY6NP15ff97fhfcnSDiTsyqm2jdc0_A9-PASijqD5rZSgyiiQBaUhgfpgifHHyDq_j2nrotRIEzxQzdJb7vKiTv0mdKVjRCqDsvRLU5EsqvvrTAjgk_MtlMscJdZF6qtEl8pUTYencsrNTDAcV1Sql1AzIREdOrNgcKwzLgPPt9LHtsluux-gWXXV7ZD5_Dlv2SIvnlsvVJBz8VJCwrQPvlNPlFvr-TVFLDum_flv1ULZrLrVAryO9fTNX3aZGgRMwTyGvx_x3d4awhIAvgSZUUXH_Aa-hNKK4czVjYZk65Bans7FLnxVEbKWwB1QrQkdLtfDIaBQvZmYIZDFAiawpGtn8sEwjOCkWkxrN53bhVPnL8toNnQxYMBQYOtF_RQDDGP1ImRYYhS1LfvroQFECd-yetA-nsvUs3U2k82sCtlizdv-TdvMJPTM6VD3W0Z7Sy1qD7FDxzSNH8_w113Ya47WjQKsoxkajztojy1UMsuEQ1QsPfD-lJW5-uuM5WnarnoU2hGzVdLsSNLJydycds0yw6aF9GubQeKelC8sufhYgwKTgmaU4n7ATosL7nXEP6P0wLyEhQDP9lkFwaO9AM9TNkLdA-goZhSv_Lw4-7lr4Js5iZUCo4Ulpkc_VqS4ZAYwRJ0-UqA6N-_lmyJVkYG8ZAZFqxVNGvuQujOMzHGTm0s8033qx0BaLlOb5gWCcEiO55BAT-KJE93IbFKFMWkEKnoA8AuP9ro5wK-u2DNV-zG4YF92lpE346HPeLQanm3i7A-wyC1jQvX8p3rqRM9qcJu7aT5WpeLDv23iS49f4jWSPimjdsxhEF30K9mdfSI9U-TLBa5KWE9DwbKQQHVXxEBiq213TT0_5K7pRM0yEJ0QEb48l5mQdUZ8RnGguFKzgKF8ORIOUYetkV4s7ldJv8S8NS2Nk90OKBgTNG9wlegg6iFH0KQP-x7pYf-CyV7i8R0WzoKxYd-XxRlhOOEkJvs_T1ZKkLIfPk4K9f16XSEE6XSdKVEmfxEpWzePbJVO7W1GBfqjG9aylsG95lv_2091EEvGm2vFh-fEqPVFiGntboOuvdhTiETu71ikrMWoL73zqTXq-vXIdWwmgdW4Jf03gw7VhNIjKR734vK5tiFfdgU2as519bv5ApgmiP5S76MRhaf1uTGNa8PH6BXKN9qOS5l6xNA7IWxwxz__aMnOzzD1gKiECI_oP3C2r5aZ6-tjQF96A0ByHCYXFRp49ClmKp6KEZhcha9hycOgcg47kZvi4KE4OL7xt7qkWxeBjT9qCeWCH0QL4tDb6DzcbZ5rusqM_6qJ9m61DBaxzFKBbQPSydWD4Q59VzXCWBk2vlZqqwcvTDn8gVCR6Uv4DMxRL6Ucpvi1XRdBi-Tnoq6Db9iE-UL7yc4RPTsHcQXF2GmuYRl99UnPL0xh9X2sAV4gnTCA41bS1SsRl04M6y6WdXUOsJulA0A0KR2V6mRlCsfpmDyOGV4q-mVGVyCi1SOoQW51gvRaRfrFgPTjs4iIgpvDxZm5iIOO9-0yKS3-7R_ZUDmdAaIXZWVfc0QcfNXjKGwhEPt2dbtlKSFyd7Qksbpfbo3l2_7XG6iIQsL50Pwk6l5NjvDcJMX18vf4zZVIxaKr6hNuhquH1Dgh6D5ArGRGnVuAU2qmrFb4AgFtz5SC_OgFgvTrui6tdmxUXJXW5LkSHuUrik8X_SoYDoOmjHGBA9pPea1RfP17fvOux9JkLlMUDb6AAHvRsJ6fxVgI-ixa2-fYlj1cDuIQ8E-ba7N321ccnUZuB5i5swcfLdXfRoV7WMlZ4NrFm00?></g></svg>