<?plantuml 1.2026.2?><svg xmlns="http://www.w3.org/2000/svg" xmlns:xlink="http://www.w3.org/1999/xlink" contentStyleType="text/css" data-diagram-type="ACTIVITY" height="2337px" preserveAspectRatio="none" style="width:605px;height:2337px;background:#FFFFFF;" version="1.1" viewBox="0 0 605 2337" width="605px" zoomAndPan="magnify"><title>Result Processor - Analysis and Reporting Pipeline</title><defs/><g><g class="title" data-source-line="1"><text fill="#000000" font-family="Arial" font-size="14" font-weight="bold" lengthAdjust="spacing" textLength="348.8507" x="126.6038" y="34.9659">Result Processor - Analysis and Reporting Pipeline</text></g><ellipse cx="189.3554" cy="60.0679" fill="#222222" rx="10" ry="10" style="stroke:#222222;stroke-width:1;"/><path d="M319.6762,80.0679 L319.6762,125.333 L299.6762,129.333 L319.6762,133.333 L319.6762,178.598 A0,0 0 0 0 319.6762,178.598 L593.0584,178.598 A0,0 0 0 0 593.0584,178.598 L593.0584,90.0679 L583.0584,80.0679 L319.6762,80.0679 A0,0 0 0 0 319.6762,80.0679" fill="#FEFFDD" style="stroke:#181818;stroke-width:0.5;"/><path d="M583.0584,80.0679 L583.0584,90.0679 L593.0584,90.0679 L583.0584,80.0679" fill="#FEFFDD" style="stroke:#181818;stroke-width:0.5;"/><text fill="#000000" font-family="Arial" font-size="13" lengthAdjust="spacing" textLength="105.2871" x="325.6762" y="98.9649">Alternative entry:</text><text fill="#000000" font-family="Arial" font-size="13" font-weight="bold" lengthAdjust="spacing" textLength="103.285" x="434.3433" y="98.9649">analysis-job run</text><text fill="#000000" font-family="Arial" font-size="13" lengthAdjust="spacing" textLength="252.3822" x="325.6762" y="116.6709">manages a persistent job with resumable</text><text fill="#000000" font-family="Arial" font-size="13" lengthAdjust="spacing" textLength="242.2942" x="325.6762" y="134.377">state tracking, cooperative cancellation,</text><text fill="#000000" font-family="Arial" font-size="13" lengthAdjust="spacing" textLength="175.1362" x="325.6762" y="152.083">and optional suite ID linkage</text><text fill="#000000" font-family="Arial" font-size="13" lengthAdjust="spacing" textLength="206.7652" x="325.6762" y="169.789">(analysis-job run / status / cancel).</text><rect fill="#F8F8F8" height="36.3441" rx="12.5" ry="12.5" style="stroke:#555555;stroke-width:0.5;" width="220.6415" x="79.0347" y="111.1609"/><text fill="#000000" font-family="Arial" font-size="12" lengthAdjust="spacing" textLength="200.6415" x="89.0347" y="133.989">Select experiment result JSONL files</text><rect fill="#F8F8F8" height="52.6882" rx="12.5" ry="12.5" style="stroke:#555555;stroke-width:0.5;" width="193.4012" x="92.6548" y="198.598"/><text fill="#000000" font-family="Arial" font-size="12" lengthAdjust="spacing" textLength="170.1732" x="102.6548" y="221.4261">Load already analyzed run IDs</text><text fill="#000000" font-family="Arial" font-size="12" lengthAdjust="spacing" textLength="173.4012" x="102.6548" y="237.7702">when resume mode is enabled</text><rect fill="#F8F8F8" height="36.3441" rx="12.5" ry="12.5" style="stroke:#555555;stroke-width:0.5;" width="136.5688" x="121.071" y="315.2862"/><text fill="#000000" font-family="Arial" font-size="12" lengthAdjust="spacing" textLength="116.5688" x="131.071" y="338.1143">Read next RunResult</text><polygon fill="#FFF7E6" points="131.8753,371.6303,246.8355,371.6303,258.8355,383.6303,246.8355,395.6303,131.8753,395.6303,119.8753,383.6303,131.8753,371.6303" style="stroke:#555555;stroke-width:0.5;"/><text fill="#000000" font-family="Arial" font-size="11" lengthAdjust="spacing" textLength="114.9602" x="131.8753" y="387.8983">Run already analyzed?</text><text fill="#000000" font-family="Arial" font-size="11" lengthAdjust="spacing" textLength="17.0829" x="102.7925" y="380.4074">yes</text><text fill="#000000" font-family="Arial" font-size="11" lengthAdjust="spacing" textLength="13.4529" x="258.8355" y="380.4074">no</text><rect fill="#F8F8F8" height="36.3441" rx="12.5" ry="12.5" style="stroke:#555555;stroke-width:0.5;" width="109.3166" x="11" y="405.6303"/><text fill="#000000" font-family="Arial" font-size="12" lengthAdjust="spacing" textLength="89.3166" x="21" y="428.4584">Skip cached run</text><rect fill="#F8F8F8" height="36.3441" rx="12.5" ry="12.5" style="stroke:#555555;stroke-width:0.5;" width="165.153" x="230.476" y="405.6303"/><text fill="#000000" font-family="Arial" font-size="12" lengthAdjust="spacing" textLength="145.153" x="240.476" y="428.4584">Record analysis start time</text><rect fill="#F8F8F8" height="36.3441" rx="12.5" ry="12.5" style="stroke:#555555;stroke-width:0.5;" width="115.6527" x="255.2262" y="461.9745"/><text fill="#000000" font-family="Arial" font-size="12" lengthAdjust="spacing" textLength="95.6527" x="265.2262" y="484.8025">Take answer text</text><rect fill="#F8F8F8" height="36.3441" rx="12.5" ry="12.5" style="stroke:#555555;stroke-width:0.5;" width="145.0169" x="240.5441" y="518.3186"/><text fill="#000000" font-family="Arial" font-size="12" lengthAdjust="spacing" textLength="125.0169" x="250.5441" y="541.1467">Strip reasoning blocks</text><rect fill="#F8F8F8" height="52.6882" rx="12.5" ry="12.5" style="stroke:#555555;stroke-width:0.5;" width="172.2091" x="226.948" y="574.6627"/><text fill="#000000" font-family="Arial" font-size="12" lengthAdjust="spacing" textLength="152.2091" x="236.948" y="597.4908">Extract structured citations</text><text fill="#000000" font-family="Arial" font-size="12" lengthAdjust="spacing" textLength="151.3571" x="236.948" y="613.8349">(statement, file, line range)</text><rect fill="#F8F8F8" height="36.3441" rx="12.5" ry="12.5" style="stroke:#555555;stroke-width:0.5;" width="210.8253" x="207.6399" y="647.3509"/><text fill="#000000" font-family="Arial" font-size="12" lengthAdjust="spacing" textLength="190.8253" x="217.6399" y="670.179">Split remaining uncited sentences</text><rect fill="#F8F8F8" height="52.6882" rx="12.5" ry="12.5" style="stroke:#555555;stroke-width:0.5;" width="144.8849" x="240.6101" y="747.695"/><text fill="#000000" font-family="Arial" font-size="12" lengthAdjust="spacing" textLength="122.8449" x="250.6101" y="770.5231">Resolve cited file path</text><text fill="#000000" font-family="Arial" font-size="12" lengthAdjust="spacing" textLength="124.8849" x="250.6101" y="786.8672">inside selected corpus</text><polygon fill="#FFF7E6" points="261.9194,820.3833,364.1857,820.3833,376.1857,832.3833,364.1857,844.3833,261.9194,844.3833,249.9194,832.3833,261.9194,820.3833" style="stroke:#555555;stroke-width:0.5;"/><text fill="#000000" font-family="Arial" font-size="11" lengthAdjust="spacing" textLength="102.2662" x="261.9194" y="836.6512">Reference resolves?</text><text fill="#000000" font-family="Arial" font-size="11" lengthAdjust="spacing" textLength="17.0829" x="232.8366" y="829.1603">yes</text><text fill="#000000" font-family="Arial" font-size="11" lengthAdjust="spacing" textLength="13.4529" x="376.1857" y="829.1603">no</text><rect fill="#F8F8F8" height="52.6882" rx="12.5" ry="12.5" style="stroke:#555555;stroke-width:0.5;" width="138.7048" x="150.3166" y="854.3833"/><text fill="#000000" font-family="Arial" font-size="12" lengthAdjust="spacing" textLength="104.2327" x="160.3166" y="877.2113">Read cited excerpt</text><text fill="#000000" font-family="Arial" font-size="12" lengthAdjust="spacing" textLength="118.7048" x="160.3166" y="893.5555">and clamp line range</text><rect fill="#F8F8F8" height="36.3441" rx="12.5" ry="12.5" style="stroke:#555555;stroke-width:0.5;" width="194.8292" x="309.0214" y="854.3833"/><text fill="#000000" font-family="Arial" font-size="12" lengthAdjust="spacing" textLength="174.8292" x="319.0214" y="877.2113">Mark claim as BAD_REFERENCE</text><polygon fill="#FFF7E6" points="313.0525,913.0715,325.0525,925.0715,313.0525,937.0715,301.0525,925.0715,313.0525,913.0715" style="stroke:#555555;stroke-width:0.5;"/><rect fill="#F8F8F8" height="52.6882" rx="12.5" ry="12.5" style="stroke:#555555;stroke-width:0.5;" width="173.0371" x="226.534" y="1006.5624"/><text fill="#000000" font-family="Arial" font-size="12" lengthAdjust="spacing" textLength="153.0371" x="236.534" y="1029.3905">Ask examiner LLM whether</text><text fill="#000000" font-family="Arial" font-size="12" lengthAdjust="spacing" textLength="150.3131" x="236.534" y="1045.7346">excerpt supports the claim</text><rect fill="#F8F8F8" height="36.3441" rx="12.5" ry="12.5" style="stroke:#555555;stroke-width:0.5;" width="217.7134" x="204.1958" y="1089.7507"/><text fill="#000000" font-family="Arial" font-size="12" lengthAdjust="spacing" textLength="197.7134" x="214.1958" y="1112.5787">Store claim verdict and justification</text><polygon fill="#FFF7E6" points="267.0949,957.0715,359.0102,957.0715,371.0102,969.0715,359.0102,981.0715,267.0949,981.0715,255.0949,969.0715,267.0949,957.0715" style="stroke:#555555;stroke-width:0.5;"/><text fill="#000000" font-family="Arial" font-size="11" lengthAdjust="spacing" textLength="17.0829" x="317.0525" y="992.8304">yes</text><text fill="#000000" font-family="Arial" font-size="11" lengthAdjust="spacing" textLength="91.9154" x="267.0949" y="973.3395">Excerpt available?</text><polygon fill="#FFF7E6" points="313.0525,1146.0948,325.0525,1158.0948,313.0525,1170.0948,301.0525,1158.0948,313.0525,1146.0948" style="stroke:#555555;stroke-width:0.5;"/><polygon fill="#FFF7E6" points="313.0525,703.695,325.0525,715.695,313.0525,727.695,301.0525,715.695,313.0525,703.695" style="stroke:#555555;stroke-width:0.5;"/><polygon fill="#FFF7E6" points="273.6508,1190.0948,352.4543,1190.0948,364.4543,1202.0948,352.4543,1214.0948,273.6508,1214.0948,261.6508,1202.0948,273.6508,1190.0948" style="stroke:#555555;stroke-width:0.5;"/><text fill="#000000" font-family="Arial" font-size="11" lengthAdjust="spacing" textLength="78.8035" x="273.6508" y="1206.3627">More citations?</text><text fill="#000000" font-family="Arial" font-size="11" lengthAdjust="spacing" textLength="17.0829" x="364.4543" y="1198.8718">yes</text><rect fill="#F8F8F8" height="52.6882" rx="12.5" ry="12.5" style="stroke:#555555;stroke-width:0.5;" width="148.3649" x="238.8701" y="1278.0948"/><text fill="#000000" font-family="Arial" font-size="12" lengthAdjust="spacing" textLength="128.3649" x="248.8701" y="1300.9229">Mark uncited sentence</text><text fill="#000000" font-family="Arial" font-size="12" lengthAdjust="spacing" textLength="109.7048" x="248.8701" y="1317.267">as BAD_REFERENCE</text><polygon fill="#FFF7E6" points="313.0525,1234.0948,325.0525,1246.0948,313.0525,1258.0948,301.0525,1246.0948,313.0525,1234.0948" style="stroke:#555555;stroke-width:0.5;"/><polygon fill="#FFF7E6" points="248.791,1350.783,377.3141,1350.783,389.3141,1362.783,377.3141,1374.783,248.791,1374.783,236.791,1362.783,248.791,1350.783" style="stroke:#555555;stroke-width:0.5;"/><text fill="#000000" font-family="Arial" font-size="11" lengthAdjust="spacing" textLength="128.5231" x="248.791" y="1367.051">More uncited sentences?</text><text fill="#000000" font-family="Arial" font-size="11" lengthAdjust="spacing" textLength="17.0829" x="389.3141" y="1359.56">yes</text><rect fill="#F8F8F8" height="52.6882" rx="12.5" ry="12.5" style="stroke:#555555;stroke-width:0.5;" width="195.9093" x="215.0979" y="1394.783"/><text fill="#000000" font-family="Arial" font-size="12" lengthAdjust="spacing" textLength="175.9093" x="225.0979" y="1417.6111">Summarize answer helpfulness</text><text fill="#000000" font-family="Arial" font-size="12" lengthAdjust="spacing" textLength="130.813" x="225.0979" y="1433.9552">from per-claim verdicts</text><rect fill="#F8F8F8" height="69.0323" rx="12.5" ry="12.5" style="stroke:#555555;stroke-width:0.5;" width="165.2491" x="230.428" y="1467.4712"/><text fill="#000000" font-family="Arial" font-size="12" lengthAdjust="spacing" textLength="136.081" x="240.428" y="1490.2993">Aggregate support rate,</text><text fill="#000000" font-family="Arial" font-size="12" lengthAdjust="spacing" textLength="145.2491" x="240.428" y="1506.6434">error rate, overclaim rate,</text><text fill="#000000" font-family="Arial" font-size="12" lengthAdjust="spacing" textLength="140.869" x="240.428" y="1522.9875">and final pass/fail verdict</text><rect fill="#F8F8F8" height="52.6882" rx="12.5" ry="12.5" style="stroke:#555555;stroke-width:0.5;" width="199.4973" x="213.3039" y="1556.5036"/><text fill="#000000" font-family="Arial" font-size="12" lengthAdjust="spacing" textLength="129.2169" x="223.3039" y="1579.3317">Record analysis_time_s</text><text fill="#000000" font-family="Arial" font-size="12" lengthAdjust="spacing" textLength="179.4973" x="223.3039" y="1595.6758">(wall-clock duration for this run)</text><rect fill="#F8F8F8" height="52.6882" rx="12.5" ry="12.5" style="stroke:#555555;stroke-width:0.5;" width="184.6171" x="220.744" y="1629.1918"/><text fill="#000000" font-family="Arial" font-size="12" lengthAdjust="spacing" textLength="156.9011" x="230.744" y="1652.0199">Attach suite_id, suite_name,</text><text fill="#000000" font-family="Arial" font-size="12" lengthAdjust="spacing" textLength="164.6171" x="230.744" y="1668.364">analysis_run_name metadata</text><rect fill="#F8F8F8" height="36.3441" rx="12.5" ry="12.5" style="stroke:#555555;stroke-width:0.5;" width="210.0934" x="208.0059" y="1701.88"/><text fill="#000000" font-family="Arial" font-size="12" lengthAdjust="spacing" textLength="190.0934" x="218.0059" y="1724.7081">Append AnalysisResult JSONL row</text><polygon fill="#FFF7E6" points="189.3554,1744.2241,201.3554,1756.2241,189.3554,1768.2241,177.3554,1756.2241,189.3554,1744.2241" style="stroke:#555555;stroke-width:0.5;"/><polygon fill="#FFF7E6" points="189.3554,271.2862,201.3554,283.2862,189.3554,295.2862,177.3554,283.2862,189.3554,271.2862" style="stroke:#555555;stroke-width:0.5;"/><polygon fill="#FFF7E6" points="160.1451,1788.2241,218.5657,1788.2241,230.5657,1800.2241,218.5657,1812.2241,160.1451,1812.2241,148.1451,1800.2241,160.1451,1788.2241" style="stroke:#555555;stroke-width:0.5;"/><text fill="#000000" font-family="Arial" font-size="11" lengthAdjust="spacing" textLength="58.4206" x="160.1451" y="1804.4921">More runs?</text><text fill="#000000" font-family="Arial" font-size="11" lengthAdjust="spacing" textLength="17.0829" x="230.5657" y="1797.0012">yes</text><rect fill="#F8F8F8" height="36.3441" rx="12.5" ry="12.5" style="stroke:#555555;stroke-width:0.5;" width="228.5735" x="75.0687" y="1832.2241"/><text fill="#000000" font-family="Arial" font-size="12" lengthAdjust="spacing" textLength="208.5735" x="85.0687" y="1855.0522">Load runs and analyses for reporting</text><rect fill="#F8F8F8" height="69.0323" rx="12.5" ry="12.5" style="stroke:#555555;stroke-width:0.5;" width="266.4457" x="56.1326" y="1888.5683"/><text fill="#000000" font-family="Arial" font-size="12" lengthAdjust="spacing" textLength="202.1294" x="66.1326" y="1911.3963">Join records into analysis dataframe</text><text fill="#000000" font-family="Arial" font-size="12" lengthAdjust="spacing" textLength="246.4457" x="66.1326" y="1927.7405">(includes execution_time_s, analysis_time_s,</text><text fill="#000000" font-family="Arial" font-size="12" lengthAdjust="spacing" textLength="226.7056" x="66.1326" y="1944.0846">examiner_model, suite linkage columns)</text><path d="M310.2801,1967.6006 L310.2801,2004.0126 L290.2801,2008.0126 L310.2801,2012.0126 L310.2801,2048.4247 A0,0 0 0 0 310.2801,2048.4247 L571.1953,2048.4247 A0,0 0 0 0 571.1953,2048.4247 L571.1953,1977.6006 L561.1953,1967.6006 L310.2801,1967.6006 A0,0 0 0 0 310.2801,1967.6006" fill="#FEFFDD" style="stroke:#181818;stroke-width:0.5;"/><path d="M561.1953,1967.6006 L561.1953,1977.6006 L571.1953,1977.6006 L561.1953,1967.6006" fill="#FEFFDD" style="stroke:#181818;stroke-width:0.5;"/><text fill="#000000" font-family="Arial" font-size="13" lengthAdjust="spacing" textLength="233.5973" x="316.2801" y="1986.4976">19 chart types including timing charts:</text><text fill="#000000" font-family="Arial" font-size="13" lengthAdjust="spacing" textLength="216.8012" x="316.2801" y="2004.2036">analysis time by system / examiner,</text><text fill="#000000" font-family="Arial" font-size="13" lengthAdjust="spacing" textLength="239.9152" x="316.2801" y="2021.9096">analysis time vs claims / answer length,</text><text fill="#000000" font-family="Arial" font-size="13" lengthAdjust="spacing" textLength="193.0762" x="316.2801" y="2039.6157">execution time vs analysis time.</text><rect fill="#F8F8F8" height="36.3441" rx="12.5" ry="12.5" style="stroke:#555555;stroke-width:0.5;" width="201.8493" x="88.4308" y="1989.8406"/><text fill="#000000" font-family="Arial" font-size="12" lengthAdjust="spacing" textLength="181.8493" x="98.4308" y="2012.6687">Generate plots and LaTeX tables</text><rect fill="#F8F8F8" height="85.3765" rx="12.5" ry="12.5" style="stroke:#555555;stroke-width:0.5;" width="270.1898" x="54.2605" y="2068.4247"/><text fill="#000000" font-family="Arial" font-size="12" lengthAdjust="spacing" textLength="149.5211" x="64.2605" y="2091.2528">Serve Streamlit dashboard</text><text fill="#000000" font-family="Arial" font-size="12" lengthAdjust="spacing" textLength="239.5697" x="64.2605" y="2107.5969">(7 tabs: Experiment suite, Run experiment,</text><text fill="#000000" font-family="Arial" font-size="12" lengthAdjust="spacing" textLength="250.1898" x="64.2605" y="2123.941">Overview, Runs, Charts, Run details, Actions)</text><text fill="#000000" font-family="Arial" font-size="12" lengthAdjust="spacing" textLength="137.545" x="64.2605" y="2140.2851">or export thesis artifacts</text><ellipse cx="189.3554" cy="2184.8011" fill="none" rx="11" ry="11" style="stroke:#222222;stroke-width:1;"/><ellipse cx="189.3554" cy="2184.8011" fill="#222222" rx="6" ry="6" style="stroke:#222222;stroke-width:1;"/><line style="stroke:#181818;stroke-width:1;" x1="189.3554" x2="189.3554" y1="70.0679" y2="111.1609"/><polygon fill="#181818" points="185.3554,101.1609,189.3554,111.1609,193.3554,101.1609,189.3554,105.1609" style="stroke:#181818;stroke-width:1;"/><line style="stroke:#181818;stroke-width:1;" x1="189.3554" x2="189.3554" y1="147.505" y2="198.598"/><polygon fill="#181818" points="185.3554,188.598,189.3554,198.598,193.3554,188.598,189.3554,192.598" style="stroke:#181818;stroke-width:1;"/><line style="stroke:#181818;stroke-width:1;" x1="313.0525" x2="313.0525" y1="441.9745" y2="461.9745"/><polygon fill="#181818" points="309.0525,451.9745,313.0525,461.9745,317.0525,451.9745,313.0525,455.9745" style="stroke:#181818;stroke-width:1;"/><line style="stroke:#181818;stroke-width:1;" x1="313.0525" x2="313.0525" y1="498.3186" y2="518.3186"/><polygon fill="#181818" points="309.0525,508.3186,313.0525,518.3186,317.0525,508.3186,313.0525,512.3186" style="stroke:#181818;stroke-width:1;"/><line style="stroke:#181818;stroke-width:1;" x1="313.0525" x2="313.0525" y1="554.6627" y2="574.6627"/><polygon fill="#181818" points="309.0525,564.6627,313.0525,574.6627,317.0525,564.6627,313.0525,568.6627" style="stroke:#181818;stroke-width:1;"/><line style="stroke:#181818;stroke-width:1;" x1="313.0525" x2="313.0525" y1="627.3509" y2="647.3509"/><polygon fill="#181818" points="309.0525,637.3509,313.0525,647.3509,317.0525,637.3509,313.0525,641.3509" style="stroke:#181818;stroke-width:1;"/><line style="stroke:#181818;stroke-width:1;" x1="249.9194" x2="219.669" y1="832.3833" y2="832.3833"/><line style="stroke:#181818;stroke-width:1;" x1="219.669" x2="219.669" y1="832.3833" y2="854.3833"/><polygon fill="#181818" points="215.669,844.3833,219.669,854.3833,223.669,844.3833,219.669,848.3833" style="stroke:#181818;stroke-width:1;"/><line style="stroke:#181818;stroke-width:1;" x1="376.1857" x2="406.4361" y1="832.3833" y2="832.3833"/><line style="stroke:#181818;stroke-width:1;" x1="406.4361" x2="406.4361" y1="832.3833" y2="854.3833"/><polygon fill="#181818" points="402.4361,844.3833,406.4361,854.3833,410.4361,844.3833,406.4361,848.3833" style="stroke:#181818;stroke-width:1;"/><line style="stroke:#181818;stroke-width:1;" x1="219.669" x2="219.669" y1="907.0715" y2="925.0715"/><line style="stroke:#181818;stroke-width:1;" x1="219.669" x2="301.0525" y1="925.0715" y2="925.0715"/><polygon fill="#181818" points="291.0525,921.0715,301.0525,925.0715,291.0525,929.0715,295.0525,925.0715" style="stroke:#181818;stroke-width:1;"/><line style="stroke:#181818;stroke-width:1;" x1="406.4361" x2="406.4361" y1="890.7274" y2="925.0715"/><line style="stroke:#181818;stroke-width:1;" x1="406.4361" x2="325.0525" y1="925.0715" y2="925.0715"/><polygon fill="#181818" points="335.0525,921.0715,325.0525,925.0715,335.0525,929.0715,331.0525,925.0715" style="stroke:#181818;stroke-width:1;"/><line style="stroke:#181818;stroke-width:1;" x1="313.0525" x2="313.0525" y1="800.3833" y2="820.3833"/><polygon fill="#181818" points="309.0525,810.3833,313.0525,820.3833,317.0525,810.3833,313.0525,814.3833" style="stroke:#181818;stroke-width:1;"/><line style="stroke:#181818;stroke-width:1;" x1="313.0525" x2="313.0525" y1="1059.2507" y2="1089.7507"/><polygon fill="#181818" points="309.0525,1079.7507,313.0525,1089.7507,317.0525,1079.7507,313.0525,1083.7507" style="stroke:#181818;stroke-width:1;"/><line style="stroke:#181818;stroke-width:1;" x1="313.0525" x2="313.0525" y1="981.0715" y2="1006.5624"/><polygon fill="#181818" points="309.0525,996.5624,313.0525,1006.5624,317.0525,996.5624,313.0525,1000.5624" style="stroke:#181818;stroke-width:1;"/><line style="stroke:#181818;stroke-width:1;" x1="371.0102" x2="431.9092" y1="969.0715" y2="969.0715"/><polygon fill="#181818" points="427.9092,1058.5786,431.9092,1068.5786,435.9092,1058.5786,431.9092,1062.5786" style="stroke:#181818;stroke-width:1;"/><line style="stroke:#181818;stroke-width:1;" x1="431.9092" x2="431.9092" y1="969.0715" y2="1158.0948"/><line style="stroke:#181818;stroke-width:1;" x1="431.9092" x2="325.0525" y1="1158.0948" y2="1158.0948"/><polygon fill="#181818" points="335.0525,1154.0948,325.0525,1158.0948,335.0525,1162.0948,331.0525,1158.0948" style="stroke:#181818;stroke-width:1;"/><line style="stroke:#181818;stroke-width:1;" x1="313.0525" x2="313.0525" y1="1126.0948" y2="1146.0948"/><polygon fill="#181818" points="309.0525,1136.0948,313.0525,1146.0948,317.0525,1136.0948,313.0525,1140.0948" style="stroke:#181818;stroke-width:1;"/><line style="stroke:#181818;stroke-width:1;" x1="313.0525" x2="313.0525" y1="937.0715" y2="957.0715"/><polygon fill="#181818" points="309.0525,947.0715,313.0525,957.0715,317.0525,947.0715,313.0525,951.0715" style="stroke:#181818;stroke-width:1;"/><line style="stroke:#181818;stroke-width:1;" x1="313.0525" x2="313.0525" y1="727.695" y2="747.695"/><polygon fill="#181818" points="309.0525,737.695,313.0525,747.695,317.0525,737.695,313.0525,741.695" style="stroke:#181818;stroke-width:1;"/><line style="stroke:#181818;stroke-width:1;" x1="364.4543" x2="525.8507" y1="1202.0948" y2="1202.0948"/><polygon fill="#181818" points="521.8507,958.8904,525.8507,948.8904,529.8507,958.8904,525.8507,954.8904" style="stroke:#181818;stroke-width:1;"/><line style="stroke:#181818;stroke-width:1;" x1="525.8507" x2="525.8507" y1="715.695" y2="1202.0948"/><line style="stroke:#181818;stroke-width:1;" x1="525.8507" x2="325.0525" y1="715.695" y2="715.695"/><polygon fill="#181818" points="335.0525,711.695,325.0525,715.695,335.0525,719.695,331.0525,715.695" style="stroke:#181818;stroke-width:1;"/><line style="stroke:#181818;stroke-width:1;" x1="313.0525" x2="313.0525" y1="1170.0948" y2="1190.0948"/><polygon fill="#181818" points="309.0525,1180.0948,313.0525,1190.0948,317.0525,1180.0948,313.0525,1184.0948" style="stroke:#181818;stroke-width:1;"/><line style="stroke:#181818;stroke-width:1;" x1="313.0525" x2="313.0525" y1="683.695" y2="703.695"/><polygon fill="#181818" points="309.0525,693.695,313.0525,703.695,317.0525,693.695,313.0525,697.695" style="stroke:#181818;stroke-width:1;"/><line style="stroke:#181818;stroke-width:1;" x1="313.0525" x2="313.0525" y1="1258.0948" y2="1278.0948"/><polygon fill="#181818" points="309.0525,1268.0948,313.0525,1278.0948,317.0525,1268.0948,313.0525,1272.0948" style="stroke:#181818;stroke-width:1;"/><line style="stroke:#181818;stroke-width:1;" x1="389.3141" x2="401.3141" y1="1362.783" y2="1362.783"/><polygon fill="#181818" points="397.3141,1314.4389,401.3141,1304.4389,405.3141,1314.4389,401.3141,1310.4389" style="stroke:#181818;stroke-width:1;"/><line style="stroke:#181818;stroke-width:1;" x1="401.3141" x2="401.3141" y1="1246.0948" y2="1362.783"/><line style="stroke:#181818;stroke-width:1;" x1="401.3141" x2="325.0525" y1="1246.0948" y2="1246.0948"/><polygon fill="#181818" points="335.0525,1242.0948,325.0525,1246.0948,335.0525,1250.0948,331.0525,1246.0948" style="stroke:#181818;stroke-width:1;"/><line style="stroke:#181818;stroke-width:1;" x1="313.0525" x2="313.0525" y1="1330.783" y2="1350.783"/><polygon fill="#181818" points="309.0525,1340.783,313.0525,1350.783,317.0525,1340.783,313.0525,1344.783" style="stroke:#181818;stroke-width:1;"/><line style="stroke:#181818;stroke-width:1;" x1="313.0525" x2="313.0525" y1="1214.0948" y2="1234.0948"/><polygon fill="#181818" points="309.0525,1224.0948,313.0525,1234.0948,317.0525,1224.0948,313.0525,1228.0948" style="stroke:#181818;stroke-width:1;"/><line style="stroke:#181818;stroke-width:1;" x1="313.0525" x2="313.0525" y1="1374.783" y2="1394.783"/><polygon fill="#181818" points="309.0525,1384.783,313.0525,1394.783,317.0525,1384.783,313.0525,1388.783" style="stroke:#181818;stroke-width:1;"/><line style="stroke:#181818;stroke-width:1;" x1="313.0525" x2="313.0525" y1="1447.4712" y2="1467.4712"/><polygon fill="#181818" points="309.0525,1457.4712,313.0525,1467.4712,317.0525,1457.4712,313.0525,1461.4712" style="stroke:#181818;stroke-width:1;"/><line style="stroke:#181818;stroke-width:1;" x1="313.0525" x2="313.0525" y1="1536.5036" y2="1556.5036"/><polygon fill="#181818" points="309.0525,1546.5036,313.0525,1556.5036,317.0525,1546.5036,313.0525,1550.5036" style="stroke:#181818;stroke-width:1;"/><line style="stroke:#181818;stroke-width:1;" x1="313.0525" x2="313.0525" y1="1609.1918" y2="1629.1918"/><polygon fill="#181818" points="309.0525,1619.1918,313.0525,1629.1918,317.0525,1619.1918,313.0525,1623.1918" style="stroke:#181818;stroke-width:1;"/><line style="stroke:#181818;stroke-width:1;" x1="313.0525" x2="313.0525" y1="1681.88" y2="1701.88"/><polygon fill="#181818" points="309.0525,1691.88,313.0525,1701.88,317.0525,1691.88,313.0525,1695.88" style="stroke:#181818;stroke-width:1;"/><line style="stroke:#181818;stroke-width:1;" x1="119.8753" x2="65.6583" y1="383.6303" y2="383.6303"/><line style="stroke:#181818;stroke-width:1;" x1="65.6583" x2="65.6583" y1="383.6303" y2="405.6303"/><polygon fill="#181818" points="61.6583,395.6303,65.6583,405.6303,69.6583,395.6303,65.6583,399.6303" style="stroke:#181818;stroke-width:1;"/><line style="stroke:#181818;stroke-width:1;" x1="258.8355" x2="313.0525" y1="383.6303" y2="383.6303"/><line style="stroke:#181818;stroke-width:1;" x1="313.0525" x2="313.0525" y1="383.6303" y2="405.6303"/><polygon fill="#181818" points="309.0525,395.6303,313.0525,405.6303,317.0525,395.6303,313.0525,399.6303" style="stroke:#181818;stroke-width:1;"/><line style="stroke:#181818;stroke-width:1;" x1="65.6583" x2="65.6583" y1="441.9745" y2="1756.2241"/><line style="stroke:#181818;stroke-width:1;" x1="65.6583" x2="177.3554" y1="1756.2241" y2="1756.2241"/><polygon fill="#181818" points="167.3554,1752.2241,177.3554,1756.2241,167.3554,1760.2241,171.3554,1756.2241" style="stroke:#181818;stroke-width:1;"/><line style="stroke:#181818;stroke-width:1;" x1="313.0525" x2="313.0525" y1="1738.2241" y2="1756.2241"/><line style="stroke:#181818;stroke-width:1;" x1="313.0525" x2="201.3554" y1="1756.2241" y2="1756.2241"/><polygon fill="#181818" points="211.3554,1752.2241,201.3554,1756.2241,211.3554,1760.2241,207.3554,1756.2241" style="stroke:#181818;stroke-width:1;"/><line style="stroke:#181818;stroke-width:1;" x1="189.3554" x2="189.3554" y1="351.6303" y2="371.6303"/><polygon fill="#181818" points="185.3554,361.6303,189.3554,371.6303,193.3554,361.6303,189.3554,365.6303" style="stroke:#181818;stroke-width:1;"/><line style="stroke:#181818;stroke-width:1;" x1="189.3554" x2="189.3554" y1="295.2862" y2="315.2862"/><polygon fill="#181818" points="185.3554,305.2862,189.3554,315.2862,193.3554,305.2862,189.3554,309.2862" style="stroke:#181818;stroke-width:1;"/><line style="stroke:#181818;stroke-width:1;" x1="230.5657" x2="559.8507" y1="1800.2241" y2="1800.2241"/><polygon fill="#181818" points="555.8507,1069.7507,559.8507,1059.7507,563.8507,1069.7507,559.8507,1065.7507" style="stroke:#181818;stroke-width:1;"/><line style="stroke:#181818;stroke-width:1;" x1="559.8507" x2="559.8507" y1="283.2862" y2="1800.2241"/><line style="stroke:#181818;stroke-width:1;" x1="559.8507" x2="201.3554" y1="283.2862" y2="283.2862"/><polygon fill="#181818" points="211.3554,279.2862,201.3554,283.2862,211.3554,287.2862,207.3554,283.2862" style="stroke:#181818;stroke-width:1;"/><line style="stroke:#181818;stroke-width:1;" x1="189.3554" x2="189.3554" y1="1768.2241" y2="1788.2241"/><polygon fill="#181818" points="185.3554,1778.2241,189.3554,1788.2241,193.3554,1778.2241,189.3554,1782.2241" style="stroke:#181818;stroke-width:1;"/><line style="stroke:#181818;stroke-width:1;" x1="189.3554" x2="189.3554" y1="251.2862" y2="271.2862"/><polygon fill="#181818" points="185.3554,261.2862,189.3554,271.2862,193.3554,261.2862,189.3554,265.2862" style="stroke:#181818;stroke-width:1;"/><line style="stroke:#181818;stroke-width:1;" x1="189.3554" x2="189.3554" y1="1812.2241" y2="1832.2241"/><polygon fill="#181818" points="185.3554,1822.2241,189.3554,1832.2241,193.3554,1822.2241,189.3554,1826.2241" style="stroke:#181818;stroke-width:1;"/><line style="stroke:#181818;stroke-width:1;" x1="189.3554" x2="189.3554" y1="1868.5683" y2="1888.5683"/><polygon fill="#181818" points="185.3554,1878.5683,189.3554,1888.5683,193.3554,1878.5683,189.3554,1882.5683" style="stroke:#181818;stroke-width:1;"/><line style="stroke:#181818;stroke-width:1;" x1="189.3554" x2="189.3554" y1="1957.6006" y2="1989.8406"/><polygon fill="#181818" points="185.3554,1979.8406,189.3554,1989.8406,193.3554,1979.8406,189.3554,1983.8406" style="stroke:#181818;stroke-width:1;"/><line style="stroke:#181818;stroke-width:1;" x1="189.3554" x2="189.3554" y1="2026.1847" y2="2068.4247"/><polygon fill="#181818" points="185.3554,2058.4247,189.3554,2068.4247,193.3554,2058.4247,189.3554,2062.4247" style="stroke:#181818;stroke-width:1;"/><line style="stroke:#181818;stroke-width:1;" x1="189.3554" x2="189.3554" y1="2153.8011" y2="2173.8011"/><polygon fill="#181818" points="185.3554,2163.8011,189.3554,2173.8011,193.3554,2163.8011,189.3554,2167.8011" style="stroke:#181818;stroke-width:1;"/><g class="legend" data-source-line="80"><rect fill="none" height="105.3396" rx="7.5" ry="7.5" style="stroke:#000000;stroke-width:1;" width="266.269" x="313.7893" y="2206.8011"/><text fill="#000000" font-family="Arial" font-size="14" lengthAdjust="spacing" textLength="256.269" x="318.7893" y="2226.7671">The processor separates two concerns:</text><text fill="#000000" font-family="Arial" font-size="14" lengthAdjust="spacing" textLength="233.6591" x="318.7893" y="2245.835">claim-level citation support scoring,</text><text fill="#000000" font-family="Arial" font-size="14" lengthAdjust="spacing" textLength="209.1452" x="318.7893" y="2264.9029">and experiment-level reporting.</text><text fill="#000000" font-family="Arial" font-size="14" lengthAdjust="spacing" textLength="252.573" x="318.7893" y="2283.9708">analysis_time_s enables cost modeling</text><text fill="#000000" font-family="Arial" font-size="14" lengthAdjust="spacing" textLength="199.5832" x="318.7893" y="2303.0387">of the examiner pipeline itself.</text></g><?plantuml-src TLPDRnit4BtlhnYW5zcG4_JGffKFXMBBHG8x2IGVUZ1WKBkp4YCkkI2vbfMW_xrlk5nPjbJf82qvdszctcpKqJ3DENGcqZVlIWx1URgWgLLc5tGWPIlSjyv7RLVqJRTijEMY21jjM-LLGqjLRbRUTRQwSWRAsxMEV70VrgfoMz6kbGc7DnNN2evld8rVLCCqzLgPWtjLHlsauuv-5aGVtxZvvUOF-SgDynNxVFfR-k3qMgl6sUfOxURcm-pt0u4JslyYlwXyB8h9WWsNaVYvPQyRjf5yZzRdnTSljrHhm-6oAAoBJ5wlrX6MfoQojmh1Cq73xoPqVguoeXVVtP9yPy_F8TdWTCL0cM0Ubr4SYC1MntNorAYbOKWY7dY87ka0oZ6Lpa6bzr4gMx8nU71s35cfcMlbIHaA7Sf1dwu9TTl06Uv7RsEXzyb-5_2dDtRshc1OaRG0mgrJ5IdZMLKxIie_k4gAdwx3WzsksVR1CZMkOaBVi9N0Aq3ZkMKbi4pcq2VBpv7cdUsR3lT4kgOHJeuy_7L6KKoFTXpE80SJYurk4MAvxlrVufJHL3IoBalCkKH5QKYHKY4fedQNlS2zsZ2kmvOzHGIJZnVHmpG22CvAiowDApSXNywU1Va8OxuhO-VXlTGn0OxyHwauqXpZr11ZmHhjeEoApmRphT7IEutIoNndOG1c0hGOY8U41D4UhPnCS4Ogd6J5DhKghXzW8cW07L9tIZJEjrsEDWFADNknB9KH8-4Opkn3LTa1FvVis_XWfODAevhs89F1-6kyauaxvJSYhp6pWJvEhn_divlPVFRbQhRNifMkYuFuPhqlKazA6-cL_mbl6ZQ8IpM8mzFjxHtuXI7d7soE5XtU2Zy5KU-Zk7nHNqJdyoaziQyqgYZPVUz2rBKkKmrV1_bI1k4oG3wwIpQ6WYDGz5KVvecQ9J3UbXUGdWJcX9-ZpZZoDrbqJQEy_h7lupMRjkwC1Nq_sDgxHlZaubNMGojFLolFAo6JZ1kg6taCEBq71QO7Sb3gjVEbG5PhuPDMXV2-Hiq6mvSdv-vH9kvHXcEhZ44ec2QgEfyWf1gUuXfPOOQ72Pd6YBdk-UfHL-Fyps8pf02oNMYaCseugaf5DQYthJ3MiBZcXopjtJOnHIhl2SXXypNAFUF9SMgMtZbuMkBsmpQyB2QVdHRcaym3QHlT2-z8Q3Ms64e_qhOqNGLzVkQo4mGoFEEtU4aTShC_2fMQ3CF0tXXqqpKs0BJ9tsnb0u0IZ8jzeBVgdl-XAEDqj9L-_PFATUB2NSiIhSGaL0JFyfCkmoJjZvo3n4JB7OKTDbE3vJ34DZwIUWhzaCaAoKrfsAxYMaJtQUzbNoc_sZKBzY0yi36hHYYpKc6zTCfNmF63f1OcD7lPnWcTiIoKWnqD5B-YEvyqRzCLSBvAsVM25Jf76pnCopJGPmyMTOMwJ0D89BtteCIrIcE3Tm7N5eNXbOGvm7aFicdtRqo1vPKb0jUuTIWIvjRR16P2vSBm4vizXUn7Bw1pP9tdfVsIGLROzzgx0y1pg-GL2znTY6dleaTMa7DrOi8zQRRvfOrqnBwe4zfzCiL_?></g></svg>